<svg width="443.44mm" height="107.68mm" version="1.1" viewBox="0 0 443.44 107.68" xmlns="http://www.w3.org/2000/svg">
   <defs>
    <style>

        :root {
            --c1: #d00d;
            --c2: #000f;
            --c3: #00dd;
        }
        path { 
         stroke-linejoin: round;
         stroke-linecap: round;
         animation: 12s infinite alternate; 
        }
        #r-1 path { 
         stroke: var(--c1); 
         animation-name: A1; 
        }
        @keyframes A1 {
         0% { stroke: var(--c1); fill: var(--c1);  }
         50% { stroke: var(--c2); fill: var(--c2); }
         100% { stroke: var(--c3); fill: var(--c3); }
        }

    </style>
 </defs>
 <rect x="-113.02" y="96.994" width="443.06" height="109.36" style="fill:#ffffff;stop-color:#000000"/>
 <g transform="translate(113.02 -96.994)">
    <g id="r-1">
   <path d="m116.77 146.84-.15111-8.0888m4.8384-5.8212 3.553 12.02m-14.817-20.638 6.8037 13.154m.2268.378 3.5532-4.6872m-14.666 1.0585 9.6766 12.322m-9.4498-12.549 10.281 3.8555m-13.003 18.597 5.2918-9.2229m-4.9138 9.3741 11.793-8.8449m-3.8555 28.878 11.415-.68039m-11.869 1.0584 5.1407-8.7694m-12.322-11.718 13.759 1.4362m1.3608-.45359 4.8383-11.264m1.0584-.90718 5.8966-9.1473m-5.821 10.281 6.3502 9.0718m-14.212 11.717 13.608-10.886m-14.061 11.113 1.5876-8.845m5.7454 16.934 7.0307-18.748m-6.8039 18.899 11.718 1.89m-11.793-2.0412 8.2403-8.3912m4.4601 10.659 7.1062-5.821m-6.7282 5.8966 22.075-4.309m-26.913-37.874 6.7282-2.6457m-7.1818 3.1749 4.6115 8.467m-4.3848 10.81 4.158-9.2984m8.3915 12.549 11.566 1.134m-12.473-.45358 8.9202 6.8038m-7.8622 4.9138-1.5872-11.869m-9.5255 7.4085 9.1475-7.8621m10.281 8.6182 6.5014 5.443m-2.7969-11.944 3.4017 12.171m.22679.0756 3.8557-17.388m-17.841-6.6526-2.4191 9.1473m-6.6527-12.171 5.8211 11.642m3.7799-8.3913 9.6763 10.206m-9.2983-10.584 16.707 5.6698m-21.318-31.524 4.687 12.02m-28.576-13.456 1.8899 10.206m.45359.5292 9.9791-10.054m.60458 12.625-.45338-12.322m.52919-.0756 7.4084 10.13m.52918.30239 2.2681-10.433m-2.1925 11.264 6.5015 14.439m1.3607-12.247-.98273 11.944m.45359.30239 7.8621-3.0996m.60479-1.0584-.7558-8.5426m.52918-.378 9.1472 8.467m-8.9962 1.134 8.9206-.83159m-16.48-7.9377 7.2574 8.5425m-12.398-22.15 12.02 12.473m-12.474-12.7 10.962-1.1341m.49139 0 8.0134 2.0411m.90719.0756 3.1752 9.0717m-.98297 11.415 1.2098-10.659m-54.922 43.707-6.9046-9.1451m7.9804 9.1451c0 .59415-.48165 1.0758-1.0758 1.0758-.59415 0-1.0758-.48166-1.0758-1.0758 0-.59416.48166-1.0758 1.0758-1.0758.59416 0 1.0758.48165 1.0758 1.0758zm-8.1213-9.3436 12.146.002m-11.07-.002c0 .59416-.48165 1.0758-1.0758 1.0758s-1.0758-.48165-1.0758-1.0758c0-.59415.48166-1.0758 1.0758-1.0758s1.0758.48166 1.0758 1.0758zm-2.0218-10.36.73077 10.057m.34504-10.057c0 .59415-.48165 1.0758-1.0758 1.0758-.59415 0-1.0758-.48166-1.0758-1.0758 0-.59416.48166-1.0758 1.0758-1.0758.59416 0 1.0758.48166 1.0758 1.0758zm.7201-23.311-1.9906 23.059m3.0664-23.059c0 .59415-.48165 1.0758-1.0758 1.0758-.59414 0-1.0758-.48166-1.0758-1.0758 0-.59416.48166-1.0758 1.0758-1.0758.59416 0 1.0758.48166 1.0758 1.0758zm2.5538 12.658-3.2759-11.791m4.3517 11.791c0 .59415-.48165 1.0758-1.0758 1.0758-.59415 0-1.0758-.48166-1.0758-1.0758 0-.59416.48166-1.0758 1.0758-1.0758.59416 0 1.0758.48166 1.0758 1.0758zm6.285.74839-6.7534-.67829m7.8292.67829c0 .59415-.48165 1.0758-1.0758 1.0758-.59415 0-1.0758-.48166-1.0758-1.0758 0-.59416.48166-1.0758 1.0758-1.0758.59416 0 1.0758.48165 1.0758 1.0758zm1.3886 10.627-2.2931-10.279m3.3689 10.279c0 .59416-.48165 1.0758-1.0758 1.0758-.59416 0-1.0758-.48165-1.0758-1.0758 0-.59415.48165-1.0758 1.0758-1.0758.59415 0 1.0758.48166 1.0758 1.0758zm-3.0056 9.4883-12.65-9.9767m13.726 9.9767c0 .59415-.48165 1.0758-1.0758 1.0758-.59415 0-1.0758-.48166-1.0758-1.0758 0-.59416.48166-1.0758 1.0758-1.0758.59416 0 1.0758.48166 1.0758 1.0758zm5.852 8.2107-6.5265-7.4821m7.6023 7.4821c0 .59416-.48165 1.0758-1.0758 1.0758-.59415 0-1.0758-.48165-1.0758-1.0758 0-.59415.48166-1.0758 1.0758-1.0758.59416 0 1.0758.48166 1.0758 1.0758zm11.812 2.689-3.5025-10.733m4.5783 10.733c0 .59416-.48165 1.0758-1.0758 1.0758-.59415 0-1.0758-.48166-1.0758-1.0758 0-.59415.48166-1.0758 1.0758-1.0758.59416 0 1.0758.48166 1.0758 1.0758zm7.2364-6.8154-11.062-4.0802m12.138 4.0802c0 .59415-.48165 1.0758-1.0758 1.0758-.59415 0-1.0758-.48166-1.0758-1.0758 0-.59416.48166-1.0758 1.0758-1.0758.59416 0 1.0758.48166 1.0758 1.0758zm-12.771-4.3726-1.6883-10.657m2.7641 10.657c0 .59416-.48165 1.0758-1.0758 1.0758-.59414 0-1.0758-.48166-1.0758-1.0758 0-.59415.48167-1.0758 1.0758-1.0758.59416 0 1.0758.48166 1.0758 1.0758zm-2.6795-10.846-12.272 1.9674m13.348-1.9674c0 .59415-.48165 1.0758-1.0758 1.0758-.59415 0-1.0758-.48166-1.0758-1.0758 0-.59416.48166-1.0758 1.0758-1.0758.59416 0 1.0758.48165 1.0758 1.0758zm4.2752-10.643-11.97.0775m13.045-.0775c0 .59415-.48165 1.0758-1.0758 1.0758-.59415 0-1.0758-.48166-1.0758-1.0758s.48166-1.0758 1.0758-1.0758c.59416 0 1.0758.48165 1.0758 1.0758zm-13.344.28834-8.1142 1.3628m9.19-1.3628c0 .59416-.48165 1.0758-1.0758 1.0758-.59415 0-1.0758-.48166-1.0758-1.0758 0-.59415.48166-1.0758 1.0758-1.0758.59416 0 1.0758.48166 1.0758 1.0758zm-9.0781-7.553 8.2151 7.4862m-7.1393-7.4862c0 .59416-.48165 1.0758-1.0758 1.0758-.59415 0-1.0758-.48166-1.0758-1.0758 0-.59415.48166-1.0758 1.0758-1.0758.59416 0 1.0758.48166 1.0758 1.0758zm-7.7735-14.358-4.3344 9.7541m5.4103-9.7541c0 .59415-.48165 1.0758-1.0758 1.0758-.59415 0-1.0758-.48166-1.0758-1.0758 0-.59416.48166-1.0758 1.0758-1.0758.59416 0 1.0758.48166 1.0758 1.0758zm20.557 11.573-10.231-2.6439m11.307 2.6439c0 .59415-.48165 1.0758-1.0758 1.0758-.59414 0-1.0758-.48166-1.0758-1.0758 0-.59416.48167-1.0758 1.0758-1.0758.59416 0 1.0758.48166 1.0758 1.0758zm-11.622-2.999-10.836-8.389m11.911 8.389c0 .59415-.48165 1.0758-1.0758 1.0758-.59415 0-1.0758-.48166-1.0758-1.0758 0-.59416.48166-1.0758 1.0758-1.0758.59416 0 1.0758.48165 1.0758 1.0758zm-3.3048-11.375-8.8701 2.7994m9.9459-2.7994c0 .59416-.48165 1.0758-1.0758 1.0758-.59415 0-1.0758-.48165-1.0758-1.0758 0-.59415.48166-1.0758 1.0758-1.0758.59416 0 1.0758.48166 1.0758 1.0758zm11.85.94603-12.953-1.1318m14.028 1.1318c0 .59416-.48165 1.0758-1.0758 1.0758-.59415 0-1.0758-.48165-1.0758-1.0758 0-.59415.48166-1.0758 1.0758-1.0758.59416 0 1.0758.48166 1.0758 1.0758zm6.8779 11.349-2.671 12.4m3.7469-12.4c0 .59415-.48165 1.0758-1.0758 1.0758-.59415 0-1.0758-.48166-1.0758-1.0758 0-.59416.48166-1.0758 1.0758-1.0758.59416 0 1.0758.48166 1.0758 1.0758zm7.0442 2.3996-7.6606-2.568m8.7364 2.568c0 .59415-.48165 1.0758-1.0758 1.0758-.59415 0-1.0758-.48166-1.0758-1.0758 0-.59416.48166-1.0758 1.0758-1.0758.59416 0 1.0758.48165 1.0758 1.0758zm-6.4906-13.508-10.382-.37599m11.458.37599c0 .59415-.48165 1.0758-1.0758 1.0758-.59415 0-1.0758-.48166-1.0758-1.0758 0-.59416.48166-1.0758 1.0758-1.0758.59416 0 1.0758.48166 1.0758 1.0758zm11.721 12.845-6.6779.4558m7.7537-.4558c0 .59415-.48165 1.0758-1.0758 1.0758-.59415 0-1.0758-.48166-1.0758-1.0758 0-.59416.48166-1.0758 1.0758-1.0758.59416 0 1.0758.48165 1.0758 1.0758zm-2.3696-13.935 1.3357 13.534m-.25989-13.534c0 .59415-.48165 1.0758-1.0758 1.0758-.59415 0-1.0758-.48166-1.0758-1.0758 0-.59416.48166-1.0758 1.0758-1.0758.59416 0 1.0758.48165 1.0758 1.0758zm7.5572 2.3305-7.2825 11.644m8.3583-11.644c0 .59416-.48165 1.0758-1.0758 1.0758-.59415 0-1.0758-.48165-1.0758-1.0758 0-.59415.48166-1.0758 1.0758-1.0758.59416 0 1.0758.48166 1.0758 1.0758zm2.9977 9.1567-10.987 2.1944m12.063-2.1944c0 .59415-.48165 1.0758-1.0758 1.0758-.59415 0-1.0758-.48166-1.0758-1.0758 0-.59416.48166-1.0758 1.0758-1.0758.59416 0 1.0758.48165 1.0758 1.0758zm-2.6104 11.306-.10083 10.964m1.1766-10.964c0 .59415-.48165 1.0758-1.0758 1.0758-.59415 0-1.0758-.48166-1.0758-1.0758 0-.59416.48166-1.0758 1.0758-1.0758.59416 0 1.0758.48166 1.0758 1.0758zm-10.671.8499 9.0465 9.6787m-7.9707-9.6787c0 .59416-.48165 1.0758-1.0758 1.0758-.59415 0-1.0758-.48166-1.0758-1.0758 0-.59415.48166-1.0758 1.0758-1.0758.59416 0 1.0758.48166 1.0758 1.0758zm-9.4841 3.7528-9.7774-2.7193m10.853 2.7193c0 .59416-.48165 1.0758-1.0758 1.0758-.59415 0-1.0758-.48166-1.0758-1.0758 0-.59415.48166-1.0758 1.0758-1.0758.59416 0 1.0758.48166 1.0758 1.0758zm-4.267 9.9105-11.667-2.2658m12.743 2.2658c0 .59415-.48165 1.0758-1.0758 1.0758-.59415 0-1.0758-.48166-1.0758-1.0758 0-.59416.48166-1.0758 1.0758-1.0758.59416 0 1.0758.48166 1.0758 1.0758zm7.8077 8.3122-7.2825 4.3111m8.3583-4.3111c0 .59415-.48165 1.0758-1.0758 1.0758-.59415 0-1.0758-.48166-1.0758-1.0758 0-.59416.48166-1.0758 1.0758-1.0758.59416 0 1.0758.48165 1.0758 1.0758zm6.3757 6.7139-14.615-2.0391m15.691 2.0391c0 .59416-.48165 1.0758-1.0758 1.0758-.59415 0-1.0758-.48165-1.0758-1.0758 0-.59415.48166-1.0758 1.0758-1.0758.59416 0 1.0758.48166 1.0758 1.0758zm-4.2346-13.321-3.7296 6.2767m4.8054-6.2767c0 .59415-.48165 1.0758-1.0758 1.0758-.59415 0-1.0758-.48166-1.0758-1.0758s.48166-1.0758 1.0758-1.0758c.59416 0 1.0758.48166 1.0758 1.0758zm6.8039-5.1708-7.8118 4.9916m8.8876-4.9916c0 .59415-.48165 1.0758-1.0758 1.0758-.59415 0-1.0758-.48166-1.0758-1.0758 0-.59416.48166-1.0758 1.0758-1.0758.59416 0 1.0758.48166 1.0758 1.0758z" style="fill:#000000;font-variation-settings:normal;stop-color:#000000;stroke-linecap:round;stroke-linejoin:round;stroke-width:.26458;stroke:#000000"/>
   </g>
  <g transform="translate(-178.96 -51.896)" id="r-2">
   <path d="m111.43 173.76 8.9133 27.804m-7.844-27.803c0 .59047-.47866 1.0691-1.0691 1.0691-.59046 0-1.0691-.47866-1.0691-1.0691 0-.59046.47867-1.0691 1.0691-1.0691.59047 0 1.0691.47867 1.0691 1.0691zm-19.59 19.05 27.434 8.7536m-26.365-8.7534c0 .59047-.47866 1.0691-1.0691 1.0691-.59046 0-1.0691-.47866-1.0691-1.0691 0-.59046.47867-1.0691 1.0691-1.0691.59047 0 1.0691.47867 1.0691 1.0691zm6.8682 30.162 19.497-21.409m-18.427 21.409c0 .59047-.47866 1.0691-1.0691 1.0691-.59046 0-1.0691-.47866-1.0691-1.0691 0-.59046.47867-1.0691 1.0691-1.0691.59047 0 1.0691.47867 1.0691 1.0691zm-4.2443-43.392 22.672 21.983m-21.602-21.983c0 .59047-.47866 1.0691-1.0691 1.0691-.59046 0-1.0691-.47866-1.0691-1.0691 0-.59046.47867-1.0691 1.0691-1.0691.59047 0 1.0691.47867 1.0691 1.0691zm30.681 50.271-9.0783-28.288m10.148 28.288c0 .59047-.47866 1.0691-1.0691 1.0691-.59046 0-1.0691-.47866-1.0691-1.0691 0-.59046.47867-1.0691 1.0691-1.0691.59047 0 1.0691.47867 1.0691 1.0691zm-29.644-12.171 19.497-16.117m-18.427 16.117c0 .59047-.47866 1.0691-1.0691 1.0691s-1.0691-.47866-1.0691-1.0691c0-.59046.47867-1.0691 1.0691-1.0691s1.0691.47867 1.0691 1.0691zm34.385 4.7623-15.957-20.88m17.027 20.88c0 .59047-.47866 1.0691-1.0691 1.0691-.59046 0-1.0691-.47866-1.0691-1.0691 0-.59046.47867-1.0691 1.0691-1.0691.59047 0 1.0691.47867 1.0691 1.0691zm5.2807-7.9377-22.307-12.942m23.377 12.942c0 .59047-.47866 1.0691-1.0691 1.0691-.59046 0-1.0691-.47866-1.0691-1.0691 0-.59046.47867-1.0691 1.0691-1.0691.59047 0 1.0691.47867 1.0691 1.0691zm-1.0693-26.988-22.307 14.045m23.377-14.045c0 .59047-.47866 1.0691-1.0691 1.0691-.59046 0-1.0691-.47866-1.0691-1.0691 0-.59046.47867-1.0691 1.0691-1.0691.59047 0 1.0691.47867 1.0691 1.0691zm-5.3026-8.4669-18.074 22.512m19.143-22.512c0 .59047-.47866 1.0691-1.0691 1.0691-.59046 0-1.0691-.47866-1.0691-1.0691 0-.59046.47867-1.0691 1.0691-1.0691.59047 0 1.0691.47867 1.0691 1.0691zm-45.519 32.279 26.376-9.7672m-25.307 9.7674c0 .59047-.47866 1.0691-1.0691 1.0691-.59046 0-1.0691-.47866-1.0691-1.0691 0-.59046.47867-1.0691 1.0691-1.0691.59047 0 1.0691.47867 1.0691 1.0691zm48.672-13.759-23.366 3.9912m24.435-3.9909c0 .59047-.47866 1.0691-1.0691 1.0691-.59046 0-1.0691-.47866-1.0691-1.0691 0-.59046.47867-1.0691 1.0691-1.0691.59047 0 1.0691.47867 1.0691 1.0691zm-51.869 4.2331 27.434-.24218m-26.365.24241c0 .59047-.47866 1.0691-1.0691 1.0691-.59046 0-1.0691-.47866-1.0691-1.0691 0-.59046.47867-1.0691 1.0691-1.0691.59047 0 1.0691.47867 1.0691 1.0691zm1.5765-13.229 24.788 12.987m-23.719-12.987c0 .59047-.47866 1.0691-1.0691 1.0691-.59046 0-1.0691-.47866-1.0691-1.0691 0-.59046.47867-1.0691 1.0691-1.0691.59047 0 1.0691.47867 1.0691 1.0691zm48.672 16.404-24.953-3.4172m26.023 3.4174c0 .59047-.47866 1.0691-1.0691 1.0691-.59046 0-1.0691-.47866-1.0691-1.0691 0-.59046.47867-1.0691 1.0691-1.0691.59047 0 1.0691.47867 1.0691 1.0691zm-22.765 17.991-3.2575-21.409m4.3268 21.409c0 .59047-.47866 1.0691-1.0691 1.0691-.59046 0-1.0691-.47866-1.0691-1.0691 0-.59046.47867-1.0691 1.0691-1.0691.59047 0 1.0691.47867 1.0691 1.0691zm-11.653 4.7623 7.3258-26.171m-6.2565 26.172c0 .59047-.47866 1.0691-1.0691 1.0691-.59046 0-1.0691-.47866-1.0691-1.0691 0-.59046.47867-1.0691 1.0691-1.0691.59047 0 1.0691.47867 1.0691 1.0691zm14.277-53.446-8.02 27.274m9.0893-27.274c0 .59047-.47866 1.0691-1.0691 1.0691-.59046 0-1.0691-.47866-1.0691-1.0691 0-.59046.47867-1.0691 1.0691-1.0691.59047 0 1.0691.47867 1.0691 1.0691zm-25.94 4.7623 16.851 22.512m-15.782-22.512c0 .59047-.47866 1.0691-1.0691 1.0691-.59046 0-1.0691-.47866-1.0691-1.0691 0-.59046.47867-1.0691 1.0691-1.0691.59047 0 1.0691.47867 1.0691 1.0691zm12.689-1.5877 3.0925 24.099m-2.0232-24.099c0 .59047-.47866 1.0691-1.0691 1.0691-.59046 0-1.0691-.47866-1.0691-1.0691 0-.59046.47867-1.0691 1.0691-1.0691.59047 0 1.0691.47867 1.0691 1.0691zm17.981 10.054-15.957 14.045m17.027-14.045c0 .59046-.47867 1.0691-1.0691 1.0691s-1.0691-.47867-1.0691-1.0691.47867-1.0691 1.0691-1.0691 1.0691.47867 1.0691 1.0691zm-37.582 17.462 20.555-3.4172m-19.486 3.4174c0 .59046-.47867 1.0691-1.0691 1.0691-.59046 0-1.0691-.47867-1.0691-1.0691s.47867-1.0691 1.0691-1.0691c.59046 0 1.0691.47867 1.0691 1.0691zm37.56 2.6456-18.074-6.063m19.143 6.0632c0 .59046-.47867 1.0691-1.0691 1.0691-.59047 0-1.0691-.47867-1.0691-1.0691 0-.59047.47866-1.0691 1.0691-1.0691.59046 0 1.0691.47866 1.0691 1.0691zm-34.936 2.6456 15.793-8.7089m-14.723 8.7091c0 .59046-.47866 1.0691-1.0691 1.0691-.59046 0-1.0691-.47867-1.0691-1.0691 0-.59047.47867-1.0691 1.0691-1.0691.59047 0 1.0691.47866 1.0691 1.0691zm16.922-28.046-2.1992 19.337m3.2685-19.337c0 .59046-.47866 1.0691-1.0691 1.0691-.59046 0-1.0691-.47867-1.0691-1.0691 0-.59047.47867-1.0691 1.0691-1.0691.59047 0 1.0691.47866 1.0691 1.0691zm-12.711 1.0581 9.4425 18.279m-8.3732-18.278c0 .59047-.47866 1.0691-1.0691 1.0691-.59046 0-1.0691-.47866-1.0691-1.0691 0-.59046.47867-1.0691 1.0691-1.0691.59047 0 1.0691.47867 1.0691 1.0691zm18.51-1.0586-10.137 19.337m11.206-19.337c0 .59047-.47867 1.0691-1.0691 1.0691s-1.0691-.47866-1.0691-1.0691c0-.59046.47867-1.0691 1.0691-1.0691s1.0691.47867 1.0691 1.0691zm9.514 19.05-20.72.28699m21.789-.28676c0 .59047-.47867 1.0691-1.0691 1.0691s-1.0691-.47866-1.0691-1.0691c0-.59046.47867-1.0691 1.0691-1.0691s1.0691.47867 1.0691 1.0691zm-43.932-3.1752 22.142 3.462m-21.073-3.4618c0 .59046-.47866 1.0691-1.0691 1.0691-.59046 0-1.0691-.47867-1.0691-1.0691s.47867-1.0691 1.0691-1.0691c.59047 0 1.0691.47867 1.0691 1.0691zm31.21 22.754-10.137-19.292m11.206 19.292c0 .59046-.47867 1.0691-1.0691 1.0691s-1.0691-.47867-1.0691-1.0691.47867-1.0691 1.0691-1.0691 1.0691.47867 1.0691 1.0691zm9.514-27.517-20.72 8.2245m21.789-8.2242c0 .59047-.47866 1.0691-1.0691 1.0691-.59046 0-1.0691-.47866-1.0691-1.0691 0-.59046.47867-1.0691 1.0691-1.0691.59047 0 1.0691.47867 1.0691 1.0691zm-22.765 23.812.97585-15.588m.0935 15.588c0 .59047-.47867 1.0691-1.0691 1.0691-.59047 0-1.0691-.47866-1.0691-1.0691 0-.59046.47866-1.0691 1.0691-1.0691.59046 0 1.0691.47867 1.0691 1.0691zm-17.473-28.046 17.38 12.458m-16.311-12.458c0 .59046-.47867 1.0691-1.0691 1.0691-.59047 0-1.0691-.47867-1.0691-1.0691 0-.59047.47866-1.0691 1.0691-1.0691.59046 0 1.0691.47866 1.0691 1.0691zm6.8682 31.221 9.4425-18.763m-8.3732 18.763c0 .59046-.47867 1.0691-1.0691 1.0691s-1.0691-.47867-1.0691-1.0691.47867-1.0691 1.0691-1.0691 1.0691.47867 1.0691 1.0691zm22.214-6.3502-13.841-12.413m14.91 12.413c0 .59047-.47866 1.0691-1.0691 1.0691-.59046 0-1.0691-.47866-1.0691-1.0691 0-.59046.47867-1.0691 1.0691-1.0691.59047 0 1.0691.47867 1.0691 1.0691z" style="fill:#000000;font-variation-settings:normal;stop-color:#000000;stroke-linecap:round;stroke-linejoin:round;stroke-width:.26458;stroke:#010101"/>
  </g>
  <g transform="translate(-77.356 84.458)" id="r-3">
   <path d="m116.46 56.801-2.067 9.7738m3.1363-9.7736c0 .59047-.47866 1.0691-1.0691 1.0691-.59046 0-1.0691-.47866-1.0691-1.0691 0-.59046.47867-1.0691 1.0691-1.0691.59047 0 1.0691.47867 1.0691 1.0691zm4.1019 14.257-7.2382-4.4834m8.3075 4.4836c0 .59047-.47866 1.0691-1.0691 1.0691-.59046 0-1.0691-.47866-1.0691-1.0691 0-.59046.47867-1.0691 1.0691-1.0691.59047 0 1.0691.47867 1.0691 1.0691zm1.9805-7.5718-10.288 3.0882m11.357-3.088c0 .59047-.47866 1.0691-1.0691 1.0691-.59046 0-1.0691-.47866-1.0691-1.0691 0-.59046.47867-1.0691 1.0691-1.0691.59047 0 1.0691.47867 1.0691 1.0691zm-16.281 10.039 4.924-6.9507m-3.8547 6.9509c0 .59047-.47866 1.0691-1.0691 1.0691-.59046 0-1.0691-.47866-1.0691-1.0691 0-.59046.47867-1.0691 1.0691-1.0691.59047 0 1.0691.47867 1.0691 1.0691zm-6.382-13.507 10.237 6.5565m-9.1674-6.5563c0 .59047-.47866 1.0691-1.0691 1.0691-.59046 0-1.0691-.47866-1.0691-1.0691 0-.59046.47867-1.0691 1.0691-1.0691.59047 0 1.0691.47867 1.0691 1.0691zm10.237 6.5565c0 .59047-.47866 1.0691-1.0691 1.0691s-1.0691-.47866-1.0691-1.0691c0-.59046.47866-1.0691 1.0691-1.0691s1.0691.47867 1.0691 1.0691zm-13.769.13252 12.7-.13276m-11.631.13253c0-.59047-.47866-1.0691-1.0691-1.0691-.59046 0-1.0691.47866-1.0691 1.0691 0 .59046.47867 1.0691 1.0691 1.0691.59047 0 1.0691-.47867 1.0691-1.0691z" style="fill:#000000;font-variation-settings:normal;stop-color:#000000;stroke-linecap:round;stroke-linejoin:round;stroke-width:.26458;stroke:#010101"/>
   <path d="m121.68 49.044 10.68 4.1199m-11.092-5.1066c.54484-.22761 1.171.02956 1.3986.5744.22759.54484-.0296 1.171-.57438 1.3986-.54484.2276-1.171-.02957-1.3986-.5744-.2276-.54484.0296-1.171.57438-1.3986zm17.855-5.4794-6.763 10.586m6.351-11.573c.54484-.22761 1.171.02956 1.3986.5744.2276.54483-.0296 1.171-.57438 1.3986-.54484.2276-1.171-.02957-1.3986-.5744-.2276-.54485.0296-1.171.57439-1.3986zm-12.437-.47539 6.086 12.048m-6.498-13.035c.54484-.22761 1.171.02955 1.3986.5744.2276.54483-.0296 1.171-.57438 1.3986-.54483.22761-1.171-.02957-1.3986-.5744-.22761-.54484.0296-1.171.57438-1.3986zm16.639 12.415-10.141.62042m9.7291-1.6072c.54485-.2276 1.171.02956 1.3986.5744.2276.54483-.0296 1.171-.57438 1.3986-.54482.2276-1.171-.02957-1.3986-.5744-.22759-.54485.0296-1.171.57438-1.3986zm-9.7604 12.386.0313-10.779m-.44326 9.7918c.54484-.22761 1.171.02956 1.3986.5744.2276.54483-.0296 1.171-.57438 1.3986-.54483.2276-1.171-.02957-1.3986-.5744-.22761-.54484.0296-1.171.57438-1.3986zm.0313-10.779c.54483-.2276 1.171.02956 1.3986.57441.2276.54484-.0296 1.171-.57438 1.3986-.54484.22761-1.171-.02956-1.3986-.5744-.22761-.54484.0296-1.171.57438-1.3986zm12.096 9.9799-11.684-8.9931m11.272 8.0065c-.54483.22761-.802.85378-.57438 1.3986.2276.54483.85379.802 1.3986.5744.54483-.22761.802-.8538.57438-1.3986-.22761-.54484-.85379-.802-1.3986-.5744z" style="fill:#000000;font-variation-settings:normal;stop-color:#000000;stroke-linecap:round;stroke-linejoin:round;stroke-width:.26458;stroke:#010101"/>
   <path d="m100.37 79.964-9.5465-6.3165m9.737 7.3687c-.58101.10534-1.1374-.28026-1.2427-.86126-.10533-.58099.28025-1.1374.86125-1.2427.58099-.10533 1.1374.28027 1.2427.86126.1053.581-.28027 1.1374-.86124 1.2427zm-18.615 1.5187 8.8778-8.8874m-8.6873 9.9396c-.581.10534-1.1374-.28025-1.2427-.86125-.10534-.58098.28025-1.1374.86126-1.2427.58099-.10533 1.1374.28027 1.2427.86126.10533.58101-.28026 1.1374-.86125 1.2427zm12.045 3.1342-3.3577-13.074m3.5483 14.126c-.581.10534-1.1374-.28025-1.2427-.86126-.10534-.58098.28025-1.1374.86125-1.2427.58098-.10534 1.1374.28026 1.2427.86126.10533.581-.28027 1.1374-.86126 1.2427zm-13.586-15.697 10.038 1.571m-9.8473-.51883c-.58101.10533-1.1374-.28025-1.2427-.86126-.10534-.58098.28025-1.1374.86126-1.2427.58098-.10534 1.1374.28026 1.2427.86125.10533.58101-.28027 1.1374-.86124 1.2427zm12.192-10.002-2.3444 10.521m2.5349-9.4683c-.581.10533-1.1374-.28026-1.2427-.86126-.10534-.58098.28026-1.1374.86126-1.2427.58098-.10534 1.1374.28027 1.2427.86126.10533.581-.28027 1.1374-.86126 1.2427zm-2.3444 10.521c-.581.10533-1.1374-.28025-1.2427-.86126-.10534-.581.28024-1.1374.86125-1.2427.581-.10534 1.1374.28025 1.2427.86126.10534.58099-.28025 1.1374-.86125 1.2427zm-9.672-12.344 9.4815 11.292m-9.2905-10.24c.581-.10534.96659-.6617.86126-1.2427-.10534-.58098-.66172-.96658-1.2427-.86126-.58099.10535-.96659.66173-.86126 1.2427.10534.58099.66172.96659 1.2427.86126z" style="fill:#000000;font-variation-settings:normal;stop-color:#000000;stroke-linecap:round;stroke-linejoin:round;stroke-width:.26458;stroke:#010101"/>
   <path d="m102.63 36.88.34741 9.615m.72006-9.6778c.0348.58944-.41481 1.0955-1.0042 1.1303s-1.0955-.41481-1.1303-1.0042c-.0348-.58943.41482-1.0955 1.0042-1.1303.58944-.03481 1.0955.41481 1.1303 1.0042zm9.9173 12.622-10.637-2.9443m11.705 2.8815c.0348.58944-.41481 1.0955-1.0042 1.1303s-1.0955-.4148-1.1303-1.0042c-.0348-.58943.41482-1.0955 1.0042-1.1303.58944-.03481 1.0955.41481 1.1303 1.0042zm-3.668-7.8902-8.0368 5.0087m9.1043-5.0715c.0348.58943-.4148 1.0955-1.0042 1.1303-.58943.03481-1.0955-.4148-1.1303-1.0042s.41481-1.0955 1.0042-1.1303c.58945-.0348 1.0955.41482 1.1303 1.0042zm-15.023 13.816 5.9183-8.7445m-4.8508 8.6817c.03481.58944-.4148 1.0955-1.0042 1.1303-.58943.0348-1.0955-.4148-1.1303-1.0042-.03482-.58943.41481-1.0955 1.0042-1.1303.58945-.0348 1.0955.41482 1.1303 1.0042zm-2.491-14.945 7.3418 6.263m-6.2744-6.3258c.03481.58945-.4148 1.0955-1.0042 1.1303-.58942.03482-1.0955-.4148-1.1303-1.0042-.0348-.58943.41482-1.0955 1.0042-1.1303.58944-.03482 1.0955.41481 1.1303 1.0042zm7.3419 6.263c.0348.58944-.4148 1.0955-1.0042 1.1303-.58943.03481-1.0955-.4148-1.1303-1.0042-.0348-.58943.4148-1.0955 1.0042-1.1303.58944-.03481 1.0955.41481 1.1303 1.0042zm-15.244 2.8611 14.177-2.7983m-13.109 2.7351c-.03481-.58945-.54085-1.0391-1.1303-1.0042s-1.0391.54085-1.0042 1.1303.54086 1.039 1.1303 1.0042c.58945-.03481 1.039-.54086 1.0042-1.1303z" style="fill:#000000;font-variation-settings:normal;stop-color:#000000;stroke-linecap:round;stroke-linejoin:round;stroke-width:.26458;stroke:#010101"/>
   <path d="m119.54 93.492.35038-9.6149m-1.4196 9.6002c.008-.59041.49312-1.0625 1.0835-1.0545.59041.008 1.0625.49312 1.0545 1.0835-.008.5904-.49312 1.0625-1.0835 1.0545-.59042-.008-1.0625-.49312-1.0545-1.0835zm-8.9764-13.308 10.396 3.7075m-11.465-3.7223c.008-.59041.49311-1.0625 1.0835-1.0545.59041.008 1.0625.49311 1.0545 1.0835-.008.5904-.49312 1.0625-1.0835 1.0545-.59041-.008-1.0625-.49312-1.0545-1.0835zm3.0865 8.1353 8.3787-4.4131m-9.4479 4.3983c.008-.5904.49311-1.0625 1.0835-1.0545.5904.008 1.0625.49311 1.0545 1.0835-.008.59041-.49311 1.0625-1.0835 1.0545-.59041-.008-1.0625-.49313-1.0545-1.0835zm15.455-11.633-6.0074 7.2342m4.9381-7.249c.008-.5904.49311-1.0625 1.0835-1.0545.59039.008 1.0625.49311 1.0545 1.0835-.008.5904-.49311 1.0625-1.0835 1.0545-.59042-.008-1.0626-.49313-1.0545-1.0835zm1.9305 14.028-6.8686-6.7786m5.7994 6.7639c.008-.59041.49311-1.0625 1.0835-1.0545.5904.008 1.0625.49311 1.0545 1.0835-.008.5904-.49312 1.0625-1.0835 1.0545-.59042-.008-1.0625-.49312-1.0545-1.0835zm-6.8686-6.7786c.008-.59041.49312-1.0625 1.0835-1.0545.5904.008 1.0625.49311 1.0545 1.0835-.008.59039-.49311 1.0625-1.0835 1.0545-.59041-.008-1.0625-.49312-1.0545-1.0835zm14.353-1.7488-13.284 1.7635m12.215-1.7778c-.008.59042.46413 1.0755 1.0545 1.0835.5904.008 1.0755-.46412 1.0835-1.0545.008-.59041-.46412-1.0755-1.0545-1.0835-.59043-.008-1.0755.46413-1.0835 1.0545z" style="fill:#000000;font-variation-settings:normal;stop-color:#000000;stroke-linecap:round;stroke-linejoin:round;stroke-width:.26458;stroke:#010101"/>
   <path d="m103.15 46.6 11.29 19.936m0 0 17.974-13.437" style="fill:none;font-variation-settings:normal;stop-color:#000000;stroke-linecap:round;stroke-linejoin:round;stroke-width:.26458;stroke:#010101"/>
   <path d="m119.72 83.87-5.3705-17.428" style="-inkscape-stroke:none;fill:none;font-variation-settings:normal;stop-color:#000000;stroke-linecap:round;stroke-linejoin:round;stroke-width:.26458;stroke:#010101"/>
   <path d="m91.095 73.811 23.25-7.3689" style="-inkscape-stroke:none;fill:none;font-variation-settings:normal;stop-color:#000000;stroke-linecap:round;stroke-linejoin:round;stroke-width:.26458;stroke:#010101"/>
  </g>
  <g transform="translate(-74.269 -112.15)" id="r-4">
   <g style="fill:#000000">
    <path class="node" d="m379.95 261.79c0 .61447-.49812 1.1126-1.1126 1.1126s-1.1126-.49812-1.1126-1.1126c0-.61447.49813-1.1126 1.1126-1.1126s1.1126.49813 1.1126 1.1126zm-12.557 22.545c0 .61447-.49813 1.1126-1.1126 1.1126s-1.1126-.49812-1.1126-1.1126.49813-1.1126 1.1126-1.1126 1.1126.49813 1.1126 1.1126zm0-12.914c0 .61447-.49813 1.1126-1.1126 1.1126s-1.1126-.49813-1.1126-1.1126.49813-1.1126 1.1126-1.1126 1.1126.49812 1.1126 1.1126zm0-19.264c0 .61447-.49813 1.1126-1.1126 1.1126s-1.1126-.49813-1.1126-1.1126.49813-1.1126 1.1126-1.1126 1.1126.49812 1.1126 1.1126zm0-12.914c0 .61447-.49813 1.1126-1.1126 1.1126s-1.1126-.49812-1.1126-1.1126.49813-1.1126 1.1126-1.1126 1.1126.49813 1.1126 1.1126zm-12.557 50.608c0 .61447-.49813 1.1126-1.1126 1.1126s-1.1126-.49813-1.1126-1.1126c-1e-5-.61447.49812-1.1126 1.1126-1.1126s1.1126.49813 1.1126 1.1126zm0-12.444c0 .61447-.49813 1.1126-1.1126 1.1126s-1.1126-.49813-1.1126-1.1126c0-.61447.49812-1.1126 1.1126-1.1126s1.1126.49812 1.1126 1.1126zm0-15.619c-1e-5.61447-.49813 1.1126-1.1126 1.1126s-1.1126-.49812-1.1126-1.1126c-1e-5-.61447.49812-1.1126 1.1126-1.1126s1.1126.49813 1.1126 1.1126zm0-15.619c0 .61447-.49813 1.1126-1.1126 1.1126s-1.1126-.49813-1.1126-1.1126c0-.61447.49812-1.1126 1.1126-1.1126s1.1126.49812 1.1126 1.1126zm0-12.444c-1e-5.61447-.49813 1.1126-1.1126 1.1126s-1.1126-.49812-1.1126-1.1126c-1e-5-.61447.49812-1.1126 1.1126-1.1126s1.1126.49813 1.1126 1.1126zm-12.557 56.125c1e-5.61447-.49812 1.1126-1.1126 1.1126-.61447 0-1.1126-.49813-1.1126-1.1126s.49812-1.1126 1.1126-1.1126c.61448 0 1.1126.49813 1.1126 1.1126zm0-12.444c1e-5.61447-.49812 1.1126-1.1126 1.1126-.61447 0-1.1126-.49813-1.1126-1.1126 1e-5-.61447.49813-1.1126 1.1126-1.1126.61447 0 1.1126.49812 1.1126 1.1126zm0-15.619c0 .61447-.49813 1.1126-1.1126 1.1126-.61446 0-1.1126-.49812-1.1126-1.1126 0-.61447.49812-1.1126 1.1126-1.1126.61448 0 1.1126.49813 1.1126 1.1126zm0-15.619c1e-5.61447-.49812 1.1126-1.1126 1.1126-.61447 0-1.1126-.49813-1.1126-1.1126 1e-5-.61447.49813-1.1126 1.1126-1.1126.61447 0 1.1126.49812 1.1126 1.1126zm0-12.444c0 .61447-.49813 1.1126-1.1126 1.1126-.61446 0-1.1126-.49812-1.1126-1.1126 0-.61447.49812-1.1126 1.1126-1.1126.61448 0 1.1126.49813 1.1126 1.1126zm-12.557 56.125c0 .61447-.49813 1.1126-1.1126 1.1126s-1.1126-.49813-1.1126-1.1126.49812-1.1126 1.1126-1.1126 1.1126.49813 1.1126 1.1126zm0-12.444c0 .61447-.49813 1.1126-1.1126 1.1126s-1.1126-.49813-1.1126-1.1126.49812-1.1126 1.1126-1.1126 1.1126.49812 1.1126 1.1126zm0-15.619c0 .61447-.49813 1.1126-1.1126 1.1126s-1.1126-.49812-1.1126-1.1126.49812-1.1126 1.1126-1.1126 1.1126.49813 1.1126 1.1126zm0-15.619c0 .61447-.49813 1.1126-1.1126 1.1126s-1.1126-.49813-1.1126-1.1126.49812-1.1126 1.1126-1.1126 1.1126.49812 1.1126 1.1126zm0-12.444c0 .61447-.49813 1.1126-1.1126 1.1126s-1.1126-.49812-1.1126-1.1126.49812-1.1126 1.1126-1.1126 1.1126.49813 1.1126 1.1126zm-12.557 56.125c0 .61447-.49813 1.1126-1.1126 1.1126s-1.1126-.49813-1.1126-1.1126c-1e-5-.61447.49812-1.1126 1.1126-1.1126s1.1126.49813 1.1126 1.1126zm0-12.444c0 .61447-.49813 1.1126-1.1126 1.1126s-1.1126-.49813-1.1126-1.1126c0-.61447.49812-1.1126 1.1126-1.1126s1.1126.49812 1.1126 1.1126zm0-15.619c-1e-5.61447-.49813 1.1126-1.1126 1.1126s-1.1126-.49812-1.1126-1.1126c-1e-5-.61447.49812-1.1126 1.1126-1.1126s1.1126.49813 1.1126 1.1126zm0-15.619c0 .61447-.49813 1.1126-1.1126 1.1126s-1.1126-.49813-1.1126-1.1126c0-.61447.49812-1.1126 1.1126-1.1126s1.1126.49812 1.1126 1.1126zm0-12.444c-1e-5.61447-.49813 1.1126-1.1126 1.1126s-1.1126-.49812-1.1126-1.1126c-1e-5-.61447.49812-1.1126 1.1126-1.1126s1.1126.49813 1.1126 1.1126zm-12.557 56.125c1e-5.61447-.49812 1.1126-1.1126 1.1126s-1.1126-.49813-1.1126-1.1126.49813-1.1126 1.1126-1.1126 1.1126.49813 1.1126 1.1126zm0-12.444c1e-5.61447-.49812 1.1126-1.1126 1.1126s-1.1126-.49813-1.1126-1.1126c1e-5-.61447.49813-1.1126 1.1126-1.1126s1.1126.49812 1.1126 1.1126zm0-15.619c0 .61447-.49812 1.1126-1.1126 1.1126s-1.1126-.49812-1.1126-1.1126c0-.61447.49813-1.1126 1.1126-1.1126s1.1126.49813 1.1126 1.1126zm0-15.619c1e-5.61447-.49812 1.1126-1.1126 1.1126s-1.1126-.49813-1.1126-1.1126c1e-5-.61447.49813-1.1126 1.1126-1.1126s1.1126.49812 1.1126 1.1126zm0-12.444c0 .61447-.49812 1.1126-1.1126 1.1126s-1.1126-.49812-1.1126-1.1126c0-.61447.49813-1.1126 1.1126-1.1126s1.1126.49813 1.1126 1.1126zm-12.557 49.904c0 .61447-.49813 1.1126-1.1126 1.1126-.61447 0-1.1126-.49812-1.1126-1.1126s.49813-1.1126 1.1126-1.1126 1.1126.49813 1.1126 1.1126zm0-12.444c0 .61447-.49812 1.1126-1.1126 1.1126s-1.1126-.49813-1.1126-1.1126.49813-1.1126 1.1126-1.1126c.61446 0 1.1126.49812 1.1126 1.1126zm0-18.794c0 .61447-.49813 1.1126-1.1126 1.1126-.61447 0-1.1126-.49812-1.1126-1.1126s.49813-1.1126 1.1126-1.1126 1.1126.49813 1.1126 1.1126zm0-12.444c0 .61447-.49812 1.1126-1.1126 1.1126s-1.1126-.49813-1.1126-1.1126.49813-1.1126 1.1126-1.1126c.61446 0 1.1126.49812 1.1126 1.1126zm-12.557 21.841c-1e-5.61447-.49813 1.1126-1.1126 1.1126-.61447 0-1.1126-.49812-1.1126-1.1126-1e-5-.61447.49812-1.1126 1.1126-1.1126.61447 0 1.1126.49813 1.1126 1.1126zm11.444 21.841 12.557 6.2219m-12.557-6.2219 12.557-6.2219m-12.557 6.2219 12.557-21.841m-12.557 21.841 12.557-37.46m-12.557 37.46 12.557-49.904m-25.113 28.063 12.557 21.841m75.34.70454 12.557-22.545m-25.113 28.063 12.557-5.5174m-12.557-6.9265 12.557 6.9265m-12.557-22.545 12.557 22.545m-12.557-38.164 12.557 38.164m-12.557-50.608 12.557 50.608m-12.557 5.5174 12.557-18.431m-12.557 18.431 12.557-37.694m-12.557 37.694 12.557-50.608m-25.113 50.608h12.557m-12.557-12.444 12.557 12.444m-12.557-28.063 12.557 28.063m-12.557-43.682 12.557 43.682m-12.557-56.125 12.557 56.125m0-12.444 12.557-5.9871m-12.557 5.9871 12.557-25.251m-12.557 25.251 12.557-38.164m-25.113 50.608 12.557-12.444m-12.557 0h12.557m-12.557-15.619 12.557 15.619m-12.557-31.238 12.557 31.238m-12.557-43.682 12.557 43.682m12.557-5.9871 12.557-9.6318m-25.113 0 12.557 9.6318m-12.557-25.251 12.557 25.251m-12.557-37.694 12.557 37.694m0-19.264 12.557 9.6318m-25.113 0 12.557-9.6318m-12.557-5.9871 12.557 5.9871m-12.557-18.431 12.557 18.431m0-12.914 12.557 22.545m-25.113 0 12.557-22.545m-12.557 6.9265 12.557-6.9265m-12.557-5.5174 12.557 5.5174m-25.113 50.608 12.557-28.063m-12.557 15.619 12.557-15.619m-12.557 0h12.557m-12.557-15.619 12.557 15.619m-12.557-28.063 12.557 28.063m-12.557 28.063 12.557-43.682m-12.557 31.238 12.557-31.238m-12.557 15.619 12.557-15.619m-12.557 0h12.557m-12.557-12.444 12.557 12.444m-12.557 43.682 12.557-56.125m-12.557 43.682 12.557-43.682m-12.557 28.063 12.557-28.063m-12.557 12.444 12.557-12.444m-12.557 0h12.557m-25.113 56.125h12.557m-12.557-12.444 12.557 12.444m-12.557-28.063 12.557 28.063m-12.557-43.682 12.557 43.682m-12.557-56.125 12.557 56.125m-12.557 0 12.557-12.444m-12.557 0h12.557m-12.557-15.619 12.557 15.619m-12.557-31.238 12.557 31.238m-12.557-43.682 12.557 43.682m-12.557 12.444 12.557-28.063m-12.557 15.619 12.557-15.619m-12.557 0h12.557m-12.557-15.619 12.557 15.619m-12.557-28.063 12.557 28.063m-12.557 28.063 12.557-43.682m-12.557 31.238 12.557-31.238m-12.557 15.619 12.557-15.619m-12.557 0h12.557m-12.557-12.444 12.557 12.444m-12.557 43.682 12.557-56.125m-12.557 43.682 12.557-43.682m-12.557 28.063 12.557-28.063m-12.557 12.444 12.557-12.444m-12.557 0h12.557m-25.113 56.125h12.557m-12.557-12.444 12.557 12.444m-12.557-28.063 12.557 28.063m-12.557-43.682 12.557 43.682m-12.557-56.125 12.557 56.125m-12.557 0 12.557-12.444m-12.557 0h12.557m-12.557-15.619 12.557 15.619m-12.557-31.238 12.557 31.238m-12.557-43.682 12.557 43.682m-12.557 12.444 12.557-28.063m-12.557 15.619 12.557-15.619m-12.557 0h12.557m-12.557-15.619 12.557 15.619m-12.557-28.063 12.557 28.063m-12.557 28.063 12.557-43.682m-12.557 31.238 12.557-31.238m-12.557 15.619 12.557-15.619m-12.557 0h12.557m-12.557-12.444 12.557 12.444m-12.557 43.682 12.557-56.125m-12.557 43.682 12.557-43.682m-12.557 28.063 12.557-28.063m-12.557 12.444 12.557-12.444m-12.557 0h12.557m-25.113 56.125h12.557m-12.557-12.444 12.557 12.444m-12.557-28.063 12.557 28.063m-12.557-43.682 12.557 43.682m-12.557-56.125 12.557 56.125m-12.557 0 12.557-12.444m-12.557 0h12.557m-12.557-15.619 12.557 15.619m-12.557-31.238 12.557 31.238m-12.557-43.682 12.557 43.682m-12.557 12.444 12.557-28.063m-12.557 15.619 12.557-15.619m-12.557 0h12.557m-12.557-15.619 12.557 15.619m-12.557-28.063 12.557 28.063m-12.557 28.063 12.557-43.682m-12.557 31.238 12.557-31.238m-12.557 15.619 12.557-15.619m-12.557 0h12.557m-12.557-12.444 12.557 12.444m-12.557 43.682 12.557-56.125m-12.557 43.682 12.557-43.682m-12.557 28.063 12.557-28.063m-12.557 12.444 12.557-12.444m-12.557 0h12.557m-25.113 37.46 12.557 18.666m-12.557-18.666 12.557 6.2219m-12.557-6.2219 12.557-9.3969m-12.557 9.3969 12.557-25.016m-12.557 25.016 12.557-37.46m-12.557 18.666 12.557 37.46m-12.557-37.46 12.557 25.016m-12.557-25.016 12.557 9.3969m-12.557-9.3969 12.557-6.2219m-12.557 6.2219 12.557-18.666m-12.557 6.2219 12.557 49.904m-12.557-49.904 12.557 37.46m-12.557-37.46 12.557 21.841m-12.557-21.841 12.557 6.2219m-12.557-6.2219 12.557-6.2219m-25.113 28.063 12.557 9.3969m-12.557-9.3969 12.557-9.3969m-12.557 9.3969 12.557-21.841" style="stroke-width:.23485;stroke:#333333"/>
   </g>
  </g>
 </g>
</svg>
