<svg
   width="443.06mm"
   height="109.36mm"
   viewBox="0 0 443.06 109.36"
   xmlns="http://www.w3.org/2000/svg">
  <defs
     id="defs1">
    <style
       id="style1">

        :root {
            --a1: #0d6efd;
            --a2: #13795b;
            --a3: #d63384;
            --a4: #087990;
        }
         #r-1 path { --c1: var(--a1); --c2: var(--a2); --c3: var(--a3); --c4: var(--a4); }
         #r-2 path { --c1: var(--a2); --c2: var(--a3); --c3: var(--a4); --c4: var(--a1); }
         #r-3 path { --c1: var(--a3); --c2: var(--a4); --c3: var(--a1); --c4: var(--a2); }
         #r-4 path { --c1: var(--a4); --c2: var(--a1); --c3: var(--a2); --c4: var(--a3); }

        path { 
         stroke-linejoin: round;
         stroke-linecap: round;
         stroke: white !important;
         stroke-width:0.26458;
         fill: white !important;
        }
        #fond {
            fill: black;
            animation: A 65s infinite alternate;
            --c1: var(--a1); --c2: var(--a2); --c3: var(--a3); --c4: var(--a4); 
        }
        @keyframes A {
         0% { stroke: var(--c1); fill: var(--c1);  }
         33% { stroke: var(--c2); fill: var(--c2); }
         66% { stroke: var(--c3); fill: var(--c3); }
         100% { stroke: var(--c4); fill: var(--c4); }
        }


    </style>
  </defs>
  <rect
     x="0"
     y="1.110223e-16"
     width="443.06"
     height="109.36"
     style=""
     id="fond" />
  <g
     id="r-1"
     transform="translate(0,0.92340031)">
    <path
       d="m 45.299998,25.71 8.9133,27.804 m -7.844,-27.803 c 0,0.59047 -0.47866,1.0691 -1.0691,1.0691 -0.59046,0 -1.0691,-0.47866 -1.0691,-1.0691 0,-0.59046 0.47867,-1.0691 1.0691,-1.0691 0.59047,0 1.0691,0.47867 1.0691,1.0691 z m -19.59,19.05 27.434,8.7536 m -26.365,-8.7534 c 0,0.59047 -0.47866,1.0691 -1.0691,1.0691 -0.59046,0 -1.0691,-0.47866 -1.0691,-1.0691 0,-0.59046 0.47867,-1.0691 1.0691,-1.0691 0.59047,0 1.0691,0.47867 1.0691,1.0691 z m 6.8682,30.162 19.497,-21.409 m -18.427,21.409 c 0,0.59047 -0.47866,1.0691 -1.0691,1.0691 -0.59046,0 -1.0691,-0.47866 -1.0691,-1.0691 0,-0.59046 0.47867,-1.0691 1.0691,-1.0691 0.59047,0 1.0691,0.47867 1.0691,1.0691 z m -4.2443,-43.392 22.672,21.983 m -21.602,-21.983 c 0,0.59047 -0.47866,1.0691 -1.0691,1.0691 -0.59046,0 -1.0691,-0.47866 -1.0691,-1.0691 0,-0.59046 0.47867,-1.0691 1.0691,-1.0691 0.59047,0 1.0691,0.47867 1.0691,1.0691 z m 30.681,50.271 -9.0783,-28.288 m 10.148,28.288 c 0,0.59047 -0.47866,1.0691 -1.0691,1.0691 -0.59046,0 -1.0691,-0.47866 -1.0691,-1.0691 0,-0.59046 0.47867,-1.0691 1.0691,-1.0691 0.59047,0 1.0691,0.47867 1.0691,1.0691 z m -29.644,-12.171 19.497,-16.117 m -18.427,16.117 c 0,0.59047 -0.47866,1.0691 -1.0691,1.0691 -0.59044,0 -1.0691,-0.47866 -1.0691,-1.0691 0,-0.59046 0.47867,-1.0691 1.0691,-1.0691 0.59043,0 1.0691,0.47867 1.0691,1.0691 z m 34.385,4.7623 -15.957,-20.88 m 17.027,20.88 c 0,0.59047 -0.47866,1.0691 -1.0691,1.0691 -0.59046,0 -1.0691,-0.47866 -1.0691,-1.0691 0,-0.59046 0.47867,-1.0691 1.0691,-1.0691 0.59047,0 1.0691,0.47867 1.0691,1.0691 z m 5.2807,-7.9377 -22.307,-12.942 m 23.377,12.942 c 0,0.59047 -0.47866,1.0691 -1.0691,1.0691 -0.59046,0 -1.0691,-0.47866 -1.0691,-1.0691 0,-0.59046 0.47867,-1.0691 1.0691,-1.0691 0.59047,0 1.0691,0.47867 1.0691,1.0691 z m -1.0693,-26.988 -22.307,14.045 m 23.377,-14.045 c 0,0.59047 -0.47866,1.0691 -1.0691,1.0691 -0.59046,0 -1.0691,-0.47866 -1.0691,-1.0691 0,-0.59046 0.47867,-1.0691 1.0691,-1.0691 0.59047,0 1.0691,0.47867 1.0691,1.0691 z m -5.3026,-8.4669 -18.074,22.512 m 19.143,-22.512 c 0,0.59047 -0.47866,1.0691 -1.0691,1.0691 -0.59046,0 -1.0691,-0.47866 -1.0691,-1.0691 0,-0.59046 0.47867,-1.0691 1.0691,-1.0691 0.59047,0 1.0691,0.47867 1.0691,1.0691 z m -45.519,32.279 26.376,-9.7672 m -25.307,9.7674 c 0,0.59047 -0.47866,1.0691 -1.0691,1.0691 -0.59046,0 -1.0691,-0.47866 -1.0691,-1.0691 0,-0.59046 0.47867,-1.0691 1.0691,-1.0691 0.59047,0 1.0691,0.47867 1.0691,1.0691 z m 48.672,-13.759 -23.366,3.9912 m 24.435,-3.9909 c 0,0.59047 -0.47866,1.0691 -1.0691,1.0691 -0.59046,0 -1.0691,-0.47866 -1.0691,-1.0691 0,-0.59046 0.47867,-1.0691 1.0691,-1.0691 0.59047,0 1.0691,0.47867 1.0691,1.0691 z m -51.869,4.2331 27.434,-0.24218 m -26.365,0.24241 c 0,0.59047 -0.47866,1.0691 -1.0691,1.0691 -0.59046,0 -1.0691,-0.47866 -1.0691,-1.0691 0,-0.59046 0.47867,-1.0691 1.0691,-1.0691 0.59047,0 1.0691,0.47867 1.0691,1.0691 z m 1.5765,-13.229 24.788,12.987 m -23.719,-12.987 c 0,0.59047 -0.47866,1.0691 -1.0691,1.0691 -0.59046,0 -1.0691,-0.47866 -1.0691,-1.0691 0,-0.59046 0.47867,-1.0691 1.0691,-1.0691 0.59047,0 1.0691,0.47867 1.0691,1.0691 z m 48.672,16.404 -24.953,-3.4172 m 26.023,3.4174 c 0,0.59047 -0.47866,1.0691 -1.0691,1.0691 -0.59046,0 -1.0691,-0.47866 -1.0691,-1.0691 0,-0.59046 0.47867,-1.0691 1.0691,-1.0691 0.59047,0 1.0691,0.47867 1.0691,1.0691 z m -22.765,17.991 -3.2575,-21.409 m 4.3268,21.409 c 0,0.59047 -0.47866,1.0691 -1.0691,1.0691 -0.59046,0 -1.0691,-0.47866 -1.0691,-1.0691 0,-0.59046 0.47867,-1.0691 1.0691,-1.0691 0.59047,0 1.0691,0.47867 1.0691,1.0691 z m -11.653,4.7623 7.3258,-26.171 m -6.2565,26.172 c 0,0.59047 -0.47866,1.0691 -1.0691,1.0691 -0.59046,0 -1.0691,-0.47866 -1.0691,-1.0691 0,-0.59046 0.47867,-1.0691 1.0691,-1.0691 0.59047,0 1.0691,0.47867 1.0691,1.0691 z m 14.277,-53.446 -8.02,27.274 m 9.0893,-27.274 c 0,0.59047 -0.47866,1.0691 -1.0691,1.0691 -0.59046,0 -1.0691,-0.47866 -1.0691,-1.0691 0,-0.59046 0.47867,-1.0691 1.0691,-1.0691 0.59047,0 1.0691,0.47867 1.0691,1.0691 z m -25.94,4.7623 16.851,22.512 m -15.782,-22.512 c 0,0.59047 -0.47866,1.0691 -1.0691,1.0691 -0.59046,0 -1.0691,-0.47866 -1.0691,-1.0691 0,-0.59046 0.47867,-1.0691 1.0691,-1.0691 0.59047,0 1.0691,0.47867 1.0691,1.0691 z m 12.689,-1.5877 3.0925,24.099 m -2.0232,-24.099 c 0,0.59047 -0.47866,1.0691 -1.0691,1.0691 -0.59046,0 -1.0691,-0.47866 -1.0691,-1.0691 0,-0.59046 0.47867,-1.0691 1.0691,-1.0691 0.59047,0 1.0691,0.47867 1.0691,1.0691 z m 17.981,10.054 -15.957,14.045 m 17.027,-14.045 c 0,0.59046 -0.47867,1.0691 -1.0691,1.0691 -0.59043,0 -1.0691,-0.47867 -1.0691,-1.0691 0,-0.59043 0.47867,-1.0691 1.0691,-1.0691 0.59043,0 1.0691,0.47867 1.0691,1.0691 z m -37.582,17.462 20.555,-3.4172 m -19.486,3.4174 c 0,0.59046 -0.47867,1.0691 -1.0691,1.0691 -0.59046,0 -1.0691,-0.47867 -1.0691,-1.0691 0,-0.59043 0.47867,-1.0691 1.0691,-1.0691 0.59046,0 1.0691,0.47867 1.0691,1.0691 z m 37.56,2.6456 -18.074,-6.063 m 19.143,6.0632 c 0,0.59046 -0.47867,1.0691 -1.0691,1.0691 -0.59047,0 -1.0691,-0.47867 -1.0691,-1.0691 0,-0.59047 0.47866,-1.0691 1.0691,-1.0691 0.59046,0 1.0691,0.47866 1.0691,1.0691 z m -34.936,2.6456 15.793,-8.7089 m -14.723,8.7091 c 0,0.59046 -0.47866,1.0691 -1.0691,1.0691 -0.59046,0 -1.0691,-0.47867 -1.0691,-1.0691 0,-0.59047 0.47867,-1.0691 1.0691,-1.0691 0.59047,0 1.0691,0.47866 1.0691,1.0691 z m 16.922,-28.046 -2.1992,19.337 m 3.2685,-19.337 c 0,0.59046 -0.47866,1.0691 -1.0691,1.0691 -0.59046,0 -1.0691,-0.47867 -1.0691,-1.0691 0,-0.59047 0.47867,-1.0691 1.0691,-1.0691 0.59047,0 1.0691,0.47866 1.0691,1.0691 z m -12.711,1.0581 9.4425,18.279 m -8.3732,-18.278 c 0,0.59047 -0.47866,1.0691 -1.0691,1.0691 -0.59046,0 -1.0691,-0.47866 -1.0691,-1.0691 0,-0.59046 0.47867,-1.0691 1.0691,-1.0691 0.59047,0 1.0691,0.47867 1.0691,1.0691 z m 18.51,-1.0586 -10.137,19.337 m 11.206,-19.337 c 0,0.59047 -0.47867,1.0691 -1.0691,1.0691 -0.59043,0 -1.0691,-0.47866 -1.0691,-1.0691 0,-0.59046 0.47867,-1.0691 1.0691,-1.0691 0.59043,0 1.0691,0.47867 1.0691,1.0691 z m 9.514,19.05 -20.72,0.28699 m 21.789,-0.28676 c 0,0.59047 -0.47867,1.0691 -1.0691,1.0691 -0.59043,0 -1.0691,-0.47866 -1.0691,-1.0691 0,-0.59046 0.47867,-1.0691 1.0691,-1.0691 0.59043,0 1.0691,0.47867 1.0691,1.0691 z m -43.932,-3.1752 22.142,3.462 m -21.073,-3.4618 c 0,0.59046 -0.47866,1.0691 -1.0691,1.0691 -0.59046,0 -1.0691,-0.47867 -1.0691,-1.0691 0,-0.59043 0.47867,-1.0691 1.0691,-1.0691 0.59047,0 1.0691,0.47867 1.0691,1.0691 z m 31.21,22.754 -10.137,-19.292 m 11.206,19.292 c 0,0.59046 -0.47867,1.0691 -1.0691,1.0691 -0.59043,0 -1.0691,-0.47867 -1.0691,-1.0691 0,-0.59043 0.47867,-1.0691 1.0691,-1.0691 0.59043,0 1.0691,0.47867 1.0691,1.0691 z m 9.514,-27.517 -20.72,8.2245 m 21.789,-8.2242 c 0,0.59047 -0.47866,1.0691 -1.0691,1.0691 -0.59046,0 -1.0691,-0.47866 -1.0691,-1.0691 0,-0.59046 0.47867,-1.0691 1.0691,-1.0691 0.59047,0 1.0691,0.47867 1.0691,1.0691 z m -22.765,23.812 0.97585,-15.588 m 0.0935,15.588 c 0,0.59047 -0.47867,1.0691 -1.0691,1.0691 -0.59047,0 -1.0691,-0.47866 -1.0691,-1.0691 0,-0.59046 0.47866,-1.0691 1.0691,-1.0691 0.59046,0 1.0691,0.47867 1.0691,1.0691 z m -17.473,-28.046 17.38,12.458 m -16.311,-12.458 c 0,0.59046 -0.47867,1.0691 -1.0691,1.0691 -0.59047,0 -1.0691,-0.47867 -1.0691,-1.0691 0,-0.59047 0.47866,-1.0691 1.0691,-1.0691 0.59046,0 1.0691,0.47866 1.0691,1.0691 z m 6.8682,31.221 9.4425,-18.763 m -8.3732,18.763 c 0,0.59046 -0.47867,1.0691 -1.0691,1.0691 -0.59043,0 -1.0691,-0.47867 -1.0691,-1.0691 0,-0.59043 0.47867,-1.0691 1.0691,-1.0691 0.59043,0 1.0691,0.47867 1.0691,1.0691 z m 22.214,-6.3502 -13.841,-12.413 m 14.91,12.413 c 0,0.59047 -0.47866,1.0691 -1.0691,1.0691 -0.59046,0 -1.0691,-0.47866 -1.0691,-1.0691 0,-0.59046 0.47867,-1.0691 1.0691,-1.0691 0.59047,0 1.0691,0.47867 1.0691,1.0691 z"
       style="font-variation-settings:normal;fill:#000000;stroke:#010101;stroke-width:0.26458;stroke-linecap:round;stroke-linejoin:round;stop-color:#000000"
       id="path2" />
  </g>
  <g
     id="r-2"
     transform="translate(0,-3.4546399)">
    <path
       d="m 148.02273,49.749631 -2.067,9.7738 m 3.1363,-9.7736 c 0,0.59047 -0.47866,1.0691 -1.0691,1.0691 -0.59046,0 -1.0691,-0.47866 -1.0691,-1.0691 0,-0.59046 0.47867,-1.0691 1.0691,-1.0691 0.59047,0 1.0691,0.47867 1.0691,1.0691 z m 4.1019,14.257 -7.2382,-4.4834 m 8.3075,4.4836 c 0,0.59047 -0.47866,1.0691 -1.0691,1.0691 -0.59046,0 -1.0691,-0.47866 -1.0691,-1.0691 0,-0.59046 0.47867,-1.0691 1.0691,-1.0691 0.59047,0 1.0691,0.47867 1.0691,1.0691 z m 1.9805,-7.5718 -10.288,3.0882 m 11.357,-3.088 c 0,0.59047 -0.47866,1.0691 -1.0691,1.0691 -0.59046,0 -1.0691,-0.47866 -1.0691,-1.0691 0,-0.59046 0.47867,-1.0691 1.0691,-1.0691 0.59047,0 1.0691,0.47867 1.0691,1.0691 z m -16.281,10.039 4.924,-6.9507 m -3.8547,6.9509 c 0,0.59047 -0.47866,1.0691 -1.0691,1.0691 -0.59046,0 -1.0691,-0.47866 -1.0691,-1.0691 0,-0.59046 0.47867,-1.0691 1.0691,-1.0691 0.59047,0 1.0691,0.47867 1.0691,1.0691 z m -6.382,-13.507 10.237,6.5565 m -9.1674,-6.5563 c 0,0.59047 -0.47866,1.0691 -1.0691,1.0691 -0.59046,0 -1.0691,-0.47866 -1.0691,-1.0691 0,-0.59046 0.47867,-1.0691 1.0691,-1.0691 0.59047,0 1.0691,0.47867 1.0691,1.0691 z m 10.237,6.5565 c 0,0.59047 -0.47866,1.0691 -1.0691,1.0691 -0.59044,0 -1.0691,-0.47866 -1.0691,-1.0691 0,-0.59046 0.47866,-1.0691 1.0691,-1.0691 0.59044,0 1.0691,0.47867 1.0691,1.0691 z m -13.769,0.13252 12.7,-0.13276 m -11.631,0.13253 c 0,-0.59047 -0.47866,-1.0691 -1.0691,-1.0691 -0.59046,0 -1.0691,0.47866 -1.0691,1.0691 0,0.59046 0.47867,1.0691 1.0691,1.0691 0.59047,0 1.0691,-0.47867 1.0691,-1.0691 z"
       style="font-variation-settings:normal;fill:#000000;stroke:#010101;stroke-width:0.26458;stroke-linecap:round;stroke-linejoin:round;stop-color:#000000"
       id="path3" />
    <path
       d="m 153.24273,41.992631 10.68,4.1199 m -11.092,-5.1066 c 0.54484,-0.22761 1.171,0.02956 1.3986,0.5744 0.22759,0.54484 -0.0296,1.171 -0.57438,1.3986 -0.54484,0.2276 -1.171,-0.02957 -1.3986,-0.5744 -0.2276,-0.54484 0.0296,-1.171 0.57438,-1.3986 z m 17.855,-5.4794 -6.763,10.586 m 6.351,-11.573 c 0.54484,-0.22761 1.171,0.02956 1.3986,0.5744 0.2276,0.54483 -0.0296,1.171 -0.57438,1.3986 -0.54484,0.2276 -1.171,-0.02957 -1.3986,-0.5744 -0.2276,-0.54485 0.0296,-1.171 0.57439,-1.3986 z m -12.437,-0.47539 6.086,12.048 m -6.498,-13.035 c 0.54484,-0.22761 1.171,0.02955 1.3986,0.5744 0.2276,0.54483 -0.0296,1.171 -0.57438,1.3986 -0.54483,0.22761 -1.171,-0.02957 -1.3986,-0.5744 -0.22761,-0.54484 0.0296,-1.171 0.57438,-1.3986 z m 16.639,12.415 -10.141,0.62042 m 9.7291,-1.6072 c 0.54485,-0.2276 1.171,0.02956 1.3986,0.5744 0.2276,0.54483 -0.0296,1.171 -0.57438,1.3986 -0.54482,0.2276 -1.171,-0.02957 -1.3986,-0.5744 -0.22759,-0.54485 0.0296,-1.171 0.57438,-1.3986 z m -9.7604,12.386 0.0313,-10.779 m -0.44326,9.7918 c 0.54484,-0.22761 1.171,0.02956 1.3986,0.5744 0.2276,0.54483 -0.0296,1.171 -0.57438,1.3986 -0.54483,0.2276 -1.171,-0.02957 -1.3986,-0.5744 -0.22761,-0.54484 0.0296,-1.171 0.57438,-1.3986 z m 0.0313,-10.779 c 0.54483,-0.2276 1.171,0.02956 1.3986,0.57441 0.2276,0.54484 -0.0296,1.171 -0.57438,1.3986 -0.54484,0.22761 -1.171,-0.02956 -1.3986,-0.5744 -0.22761,-0.54484 0.0296,-1.171 0.57438,-1.3986 z m 12.096,9.9799 -11.684,-8.9931 m 11.272,8.0065 c -0.54483,0.22761 -0.802,0.85378 -0.57438,1.3986 0.2276,0.54483 0.85379,0.802 1.3986,0.5744 0.54483,-0.22761 0.802,-0.8538 0.57438,-1.3986 -0.22761,-0.54484 -0.85379,-0.802 -1.3986,-0.5744 z"
       style="font-variation-settings:normal;fill:#000000;stroke:#010101;stroke-width:0.26458;stroke-linecap:round;stroke-linejoin:round;stop-color:#000000"
       id="path4" />
    <path
       d="m 131.93273,72.912631 -9.5465,-6.3165 m 9.737,7.3687 c -0.58101,0.10534 -1.1374,-0.28026 -1.2427,-0.86126 -0.10533,-0.58099 0.28025,-1.1374 0.86125,-1.2427 0.58099,-0.10533 1.1374,0.28027 1.2427,0.86126 0.1053,0.581 -0.28027,1.1374 -0.86124,1.2427 z m -18.615,1.5187 8.8778,-8.8874 m -8.6873,9.9396 c -0.581,0.10534 -1.1374,-0.28025 -1.2427,-0.86125 -0.10534,-0.58098 0.28025,-1.1374 0.86126,-1.2427 0.58099,-0.10533 1.1374,0.28027 1.2427,0.86126 0.10533,0.58101 -0.28026,1.1374 -0.86125,1.2427 z m 12.045,3.1342 -3.3577,-13.074 m 3.5483,14.126 c -0.581,0.10534 -1.1374,-0.28025 -1.2427,-0.86126 -0.10534,-0.58098 0.28025,-1.1374 0.86125,-1.2427 0.58098,-0.10534 1.1374,0.28026 1.2427,0.86126 0.10533,0.581 -0.28027,1.1374 -0.86126,1.2427 z m -13.586,-15.697 10.038,1.571 m -9.8473,-0.51883 c -0.58101,0.10533 -1.1374,-0.28025 -1.2427,-0.86126 -0.10534,-0.58098 0.28025,-1.1374 0.86126,-1.2427 0.58098,-0.10534 1.1374,0.28026 1.2427,0.86125 0.10533,0.58101 -0.28027,1.1374 -0.86124,1.2427 z m 12.192,-10.002 -2.3444,10.521 m 2.5349,-9.4683 c -0.581,0.10533 -1.1374,-0.28026 -1.2427,-0.86126 -0.10534,-0.58098 0.28026,-1.1374 0.86126,-1.2427 0.58098,-0.10534 1.1374,0.28027 1.2427,0.86126 0.10533,0.581 -0.28027,1.1374 -0.86126,1.2427 z m -2.3444,10.521 c -0.581,0.10533 -1.1374,-0.28025 -1.2427,-0.86126 -0.10534,-0.581 0.28024,-1.1374 0.86125,-1.2427 0.581,-0.10534 1.1374,0.28025 1.2427,0.86126 0.10534,0.58099 -0.28025,1.1374 -0.86125,1.2427 z m -9.672,-12.344 9.4815,11.292 m -9.2905,-10.24 c 0.581,-0.10534 0.96659,-0.6617 0.86126,-1.2427 -0.10534,-0.58098 -0.66172,-0.96658 -1.2427,-0.86126 -0.58099,0.10535 -0.96659,0.66173 -0.86126,1.2427 0.10534,0.58099 0.66172,0.96659 1.2427,0.86126 z"
       style="font-variation-settings:normal;fill:#000000;stroke:#010101;stroke-width:0.26458;stroke-linecap:round;stroke-linejoin:round;stop-color:#000000"
       id="path5" />
    <path
       d="m 134.19273,29.828631 0.34741,9.615 m 0.72006,-9.6778 c 0.0348,0.58944 -0.41481,1.0955 -1.0042,1.1303 -0.58939,0.0348 -1.0955,-0.41481 -1.1303,-1.0042 -0.0348,-0.58943 0.41482,-1.0955 1.0042,-1.1303 0.58944,-0.03481 1.0955,0.41481 1.1303,1.0042 z m 9.9173,12.622 -10.637,-2.9443 m 11.705,2.8815 c 0.0348,0.58944 -0.41481,1.0955 -1.0042,1.1303 -0.58939,0.0348 -1.0955,-0.4148 -1.1303,-1.0042 -0.0348,-0.58943 0.41482,-1.0955 1.0042,-1.1303 0.58944,-0.03481 1.0955,0.41481 1.1303,1.0042 z m -3.668,-7.8902 -8.0368,5.0087 m 9.1043,-5.0715 c 0.0348,0.58943 -0.4148,1.0955 -1.0042,1.1303 -0.58943,0.03481 -1.0955,-0.4148 -1.1303,-1.0042 -0.0348,-0.5894 0.41481,-1.0955 1.0042,-1.1303 0.58945,-0.0348 1.0955,0.41482 1.1303,1.0042 z m -15.023,13.816 5.9183,-8.7445 m -4.8508,8.6817 c 0.0348,0.58944 -0.4148,1.0955 -1.0042,1.1303 -0.58943,0.0348 -1.0955,-0.4148 -1.1303,-1.0042 -0.0348,-0.58943 0.41481,-1.0955 1.0042,-1.1303 0.58945,-0.0348 1.0955,0.41482 1.1303,1.0042 z m -2.491,-14.945 7.3418,6.263 m -6.2744,-6.3258 c 0.0348,0.58945 -0.4148,1.0955 -1.0042,1.1303 -0.58942,0.03482 -1.0955,-0.4148 -1.1303,-1.0042 -0.0348,-0.58943 0.41482,-1.0955 1.0042,-1.1303 0.58944,-0.03482 1.0955,0.41481 1.1303,1.0042 z m 7.3419,6.263 c 0.0348,0.58944 -0.4148,1.0955 -1.0042,1.1303 -0.58943,0.03481 -1.0955,-0.4148 -1.1303,-1.0042 -0.0348,-0.58943 0.4148,-1.0955 1.0042,-1.1303 0.58944,-0.03481 1.0955,0.41481 1.1303,1.0042 z m -15.244,2.8611 14.177,-2.7983 m -13.109,2.7351 c -0.0348,-0.58945 -0.54085,-1.0391 -1.1303,-1.0042 -0.58945,0.0349 -1.0391,0.54085 -1.0042,1.1303 0.0349,0.58945 0.54086,1.039 1.1303,1.0042 0.58945,-0.03481 1.039,-0.54086 1.0042,-1.1303 z"
       style="font-variation-settings:normal;fill:#000000;stroke:#010101;stroke-width:0.26458;stroke-linecap:round;stroke-linejoin:round;stop-color:#000000"
       id="path6" />
    <path
       d="m 151.10273,86.440631 0.35038,-9.6149 m -1.4196,9.6002 c 0.008,-0.59041 0.49312,-1.0625 1.0835,-1.0545 0.59041,0.008 1.0625,0.49312 1.0545,1.0835 -0.008,0.5904 -0.49312,1.0625 -1.0835,1.0545 -0.59042,-0.008 -1.0625,-0.49312 -1.0545,-1.0835 z m -8.9764,-13.308 10.396,3.7075 m -11.465,-3.7223 c 0.008,-0.59041 0.49311,-1.0625 1.0835,-1.0545 0.59041,0.008 1.0625,0.49311 1.0545,1.0835 -0.008,0.5904 -0.49312,1.0625 -1.0835,1.0545 -0.59041,-0.008 -1.0625,-0.49312 -1.0545,-1.0835 z m 3.0865,8.1353 8.3787,-4.4131 m -9.4479,4.3983 c 0.008,-0.5904 0.49311,-1.0625 1.0835,-1.0545 0.5904,0.008 1.0625,0.49311 1.0545,1.0835 -0.008,0.59041 -0.49311,1.0625 -1.0835,1.0545 -0.59041,-0.008 -1.0625,-0.49313 -1.0545,-1.0835 z m 15.455,-11.633 -6.0074,7.2342 m 4.9381,-7.249 c 0.008,-0.5904 0.49311,-1.0625 1.0835,-1.0545 0.59039,0.008 1.0625,0.49311 1.0545,1.0835 -0.008,0.5904 -0.49311,1.0625 -1.0835,1.0545 -0.59042,-0.008 -1.0626,-0.49313 -1.0545,-1.0835 z m 1.9305,14.028 -6.8686,-6.7786 m 5.7994,6.7639 c 0.008,-0.59041 0.49311,-1.0625 1.0835,-1.0545 0.5904,0.008 1.0625,0.49311 1.0545,1.0835 -0.008,0.5904 -0.49312,1.0625 -1.0835,1.0545 -0.59042,-0.008 -1.0625,-0.49312 -1.0545,-1.0835 z m -6.8686,-6.7786 c 0.008,-0.59041 0.49312,-1.0625 1.0835,-1.0545 0.5904,0.008 1.0625,0.49311 1.0545,1.0835 -0.008,0.59039 -0.49311,1.0625 -1.0835,1.0545 -0.59041,-0.008 -1.0625,-0.49312 -1.0545,-1.0835 z m 14.353,-1.7488 -13.284,1.7635 m 12.215,-1.7778 c -0.008,0.59042 0.46413,1.0755 1.0545,1.0835 0.5904,0.008 1.0755,-0.46412 1.0835,-1.0545 0.008,-0.59041 -0.46412,-1.0755 -1.0545,-1.0835 -0.59043,-0.008 -1.0755,0.46413 -1.0835,1.0545 z"
       style="font-variation-settings:normal;fill:#000000;stroke:#010101;stroke-width:0.26458;stroke-linecap:round;stroke-linejoin:round;stop-color:#000000"
       id="path7" />
    <path
       d="m 134.71273,39.548631 11.29,19.936 m 0,0 17.974,-13.437"
       style="font-variation-settings:normal;fill:none;stroke:#010101;stroke-width:0.26458;stroke-linecap:round;stroke-linejoin:round;stop-color:#000000"
       id="path8" />
    <path
       d="m 151.28273,76.818631 -5.3705,-17.428"
       style="font-variation-settings:normal;fill:none;stroke:#010101;stroke-width:0.26458;stroke-linecap:round;stroke-linejoin:round;-inkscape-stroke:none;stop-color:#000000"
       id="path9" />
    <path
       d="m 122.65773,66.759631 23.25,-7.3689"
       style="font-variation-settings:normal;fill:none;stroke:#010101;stroke-width:0.26458;stroke-linecap:round;stroke-linejoin:round;-inkscape-stroke:none;stop-color:#000000"
       id="path10" />
  </g>
  <g
     id="r-3"
     transform="translate(0,-3.1401527)">
    <path
       d="m 224.19569,55.017343 -0.15111,-8.0888 m 4.8384,-5.8212 3.553,12.02 m -14.817,-20.638 6.8037,13.154 m 0.2268,0.378 3.5532,-4.6872 m -14.666,1.0585 9.6766,12.322 m -9.4498,-12.549 10.281,3.8555 m -13.003,18.597 5.2918,-9.2229 m -4.9138,9.3741 11.793,-8.8449 m -3.8555,28.878 11.415,-0.68039 m -11.869,1.0584 5.1407,-8.7694 m -12.322,-11.718 13.759,1.4362 m 1.3608,-0.45359 4.8383,-11.264 m 1.0584,-0.90718 5.8966,-9.1473 m -5.821,10.281 6.3502,9.0718 m -14.212,11.717 13.608,-10.886 m -14.061,11.113 1.5876,-8.845 m 5.7454,16.934 7.0307,-18.748 m -6.8039,18.899 11.718,1.89 m -11.793,-2.0412 8.2403,-8.3912 m 4.4601,10.659 7.1062,-5.821 m -6.7282,5.8966 22.075,-4.309 m -26.913,-37.874 6.7282,-2.6457 m -7.1818,3.1749 4.6115,8.467 m -4.3848,10.81 4.158,-9.2984 m 8.3915,12.549 11.566,1.134 m -12.473,-0.45358 8.9202,6.8038 m -7.8622,4.9138 -1.5872,-11.869 m -9.5255,7.4085 9.1475,-7.8621 m 10.281,8.6182 6.5014,5.443 m -2.7969,-11.944 3.4017,12.171 m 0.22679,0.0756 3.8557,-17.388 m -17.841,-6.6526 -2.4191,9.1473 m -6.6527,-12.171 5.8211,11.642 m 3.7799,-8.3913 9.6763,10.206 m -9.2983,-10.584 16.707,5.6698 m -21.318,-31.524 4.687,12.02 m -28.576,-13.456 1.8899,10.206 m 0.45359,0.5292 9.9791,-10.054 m 0.60458,12.625 -0.45338,-12.322 m 0.52919,-0.0756 7.4084,10.13 m 0.52918,0.30239 2.2681,-10.433 m -2.1925,11.264 6.5015,14.439 m 1.3607,-12.247 -0.98273,11.944 m 0.45359,0.30239 7.8621,-3.0996 m 0.60479,-1.0584 -0.7558,-8.5426 m 0.52918,-0.378 9.1472,8.467 m -8.9962,1.134 8.9206,-0.83159 m -16.48,-7.9377 7.2574,8.5425 m -12.398,-22.15 12.02,12.473 m -12.474,-12.7 10.962,-1.1341 m 0.49139,0 8.0134,2.0411 m 0.90719,0.0756 3.1752,9.0717 m -0.98297,11.415 1.2098,-10.659 m -54.922,43.707 -6.9046,-9.1451 m 7.9804,9.1451 c 0,0.59415 -0.48165,1.0758 -1.0758,1.0758 -0.59415,0 -1.0758,-0.48166 -1.0758,-1.0758 0,-0.59416 0.48166,-1.0758 1.0758,-1.0758 0.59416,0 1.0758,0.48165 1.0758,1.0758 z m -8.1213,-9.3436 12.146,0.002 m -11.07,-0.002 c 0,0.59416 -0.48165,1.0758 -1.0758,1.0758 -0.59415,0 -1.0758,-0.48165 -1.0758,-1.0758 0,-0.59415 0.48166,-1.0758 1.0758,-1.0758 0.59414,0 1.0758,0.48166 1.0758,1.0758 z m -2.0218,-10.36 0.73077,10.057 m 0.34504,-10.057 c 0,0.59415 -0.48165,1.0758 -1.0758,1.0758 -0.59415,0 -1.0758,-0.48166 -1.0758,-1.0758 0,-0.59416 0.48166,-1.0758 1.0758,-1.0758 0.59416,0 1.0758,0.48166 1.0758,1.0758 z m 0.7201,-23.311 -1.9906,23.059 m 3.0664,-23.059 c 0,0.59415 -0.48165,1.0758 -1.0758,1.0758 -0.59414,0 -1.0758,-0.48166 -1.0758,-1.0758 0,-0.59416 0.48166,-1.0758 1.0758,-1.0758 0.59416,0 1.0758,0.48166 1.0758,1.0758 z m 2.5538,12.658 -3.2759,-11.791 m 4.3517,11.791 c 0,0.59415 -0.48165,1.0758 -1.0758,1.0758 -0.59415,0 -1.0758,-0.48166 -1.0758,-1.0758 0,-0.59416 0.48166,-1.0758 1.0758,-1.0758 0.59416,0 1.0758,0.48166 1.0758,1.0758 z m 6.285,0.74839 -6.7534,-0.67829 m 7.8292,0.67829 c 0,0.59415 -0.48165,1.0758 -1.0758,1.0758 -0.59415,0 -1.0758,-0.48166 -1.0758,-1.0758 0,-0.59416 0.48166,-1.0758 1.0758,-1.0758 0.59416,0 1.0758,0.48165 1.0758,1.0758 z m 1.3886,10.627 -2.2931,-10.279 m 3.3689,10.279 c 0,0.59416 -0.48165,1.0758 -1.0758,1.0758 -0.59416,0 -1.0758,-0.48165 -1.0758,-1.0758 0,-0.59415 0.48165,-1.0758 1.0758,-1.0758 0.59415,0 1.0758,0.48166 1.0758,1.0758 z m -3.0056,9.4883 -12.65,-9.9767 m 13.726,9.9767 c 0,0.59415 -0.48165,1.0758 -1.0758,1.0758 -0.59415,0 -1.0758,-0.48166 -1.0758,-1.0758 0,-0.59416 0.48166,-1.0758 1.0758,-1.0758 0.59416,0 1.0758,0.48166 1.0758,1.0758 z m 5.852,8.2107 -6.5265,-7.4821 m 7.6023,7.4821 c 0,0.59416 -0.48165,1.0758 -1.0758,1.0758 -0.59415,0 -1.0758,-0.48165 -1.0758,-1.0758 0,-0.59415 0.48166,-1.0758 1.0758,-1.0758 0.59416,0 1.0758,0.48166 1.0758,1.0758 z m 11.812,2.689 -3.5025,-10.733 m 4.5783,10.733 c 0,0.59416 -0.48165,1.0758 -1.0758,1.0758 -0.59415,0 -1.0758,-0.48166 -1.0758,-1.0758 0,-0.59415 0.48166,-1.0758 1.0758,-1.0758 0.59416,0 1.0758,0.48166 1.0758,1.0758 z m 7.2364,-6.8154 -11.062,-4.0802 m 12.138,4.0802 c 0,0.59415 -0.48165,1.0758 -1.0758,1.0758 -0.59415,0 -1.0758,-0.48166 -1.0758,-1.0758 0,-0.59416 0.48166,-1.0758 1.0758,-1.0758 0.59416,0 1.0758,0.48166 1.0758,1.0758 z m -12.771,-4.3726 -1.6883,-10.657 m 2.7641,10.657 c 0,0.59416 -0.48165,1.0758 -1.0758,1.0758 -0.59414,0 -1.0758,-0.48166 -1.0758,-1.0758 0,-0.59415 0.48167,-1.0758 1.0758,-1.0758 0.59416,0 1.0758,0.48166 1.0758,1.0758 z m -2.6795,-10.846 -12.272,1.9674 m 13.348,-1.9674 c 0,0.59415 -0.48165,1.0758 -1.0758,1.0758 -0.59415,0 -1.0758,-0.48166 -1.0758,-1.0758 0,-0.59416 0.48166,-1.0758 1.0758,-1.0758 0.59416,0 1.0758,0.48165 1.0758,1.0758 z m 4.2752,-10.643 -11.97,0.0775 m 13.045,-0.0775 c 0,0.59415 -0.48165,1.0758 -1.0758,1.0758 -0.59415,0 -1.0758,-0.48166 -1.0758,-1.0758 0,-0.59414 0.48166,-1.0758 1.0758,-1.0758 0.59416,0 1.0758,0.48165 1.0758,1.0758 z m -13.344,0.28834 -8.1142,1.3628 m 9.19,-1.3628 c 0,0.59416 -0.48165,1.0758 -1.0758,1.0758 -0.59415,0 -1.0758,-0.48166 -1.0758,-1.0758 0,-0.59415 0.48166,-1.0758 1.0758,-1.0758 0.59416,0 1.0758,0.48166 1.0758,1.0758 z m -9.0781,-7.553 8.2151,7.4862 m -7.1393,-7.4862 c 0,0.59416 -0.48165,1.0758 -1.0758,1.0758 -0.59415,0 -1.0758,-0.48166 -1.0758,-1.0758 0,-0.59415 0.48166,-1.0758 1.0758,-1.0758 0.59416,0 1.0758,0.48166 1.0758,1.0758 z m -7.7735,-14.358 -4.3344,9.7541 m 5.4103,-9.7541 c 0,0.59415 -0.48165,1.0758 -1.0758,1.0758 -0.59415,0 -1.0758,-0.48166 -1.0758,-1.0758 0,-0.59416 0.48166,-1.0758 1.0758,-1.0758 0.59416,0 1.0758,0.48166 1.0758,1.0758 z m 20.557,11.573 -10.231,-2.6439 m 11.307,2.6439 c 0,0.59415 -0.48165,1.0758 -1.0758,1.0758 -0.59414,0 -1.0758,-0.48166 -1.0758,-1.0758 0,-0.59416 0.48167,-1.0758 1.0758,-1.0758 0.59416,0 1.0758,0.48166 1.0758,1.0758 z m -11.622,-2.999 -10.836,-8.389 m 11.911,8.389 c 0,0.59415 -0.48165,1.0758 -1.0758,1.0758 -0.59415,0 -1.0758,-0.48166 -1.0758,-1.0758 0,-0.59416 0.48166,-1.0758 1.0758,-1.0758 0.59416,0 1.0758,0.48165 1.0758,1.0758 z m -3.3048,-11.375 -8.8701,2.7994 m 9.9459,-2.7994 c 0,0.59416 -0.48165,1.0758 -1.0758,1.0758 -0.59415,0 -1.0758,-0.48165 -1.0758,-1.0758 0,-0.59415 0.48166,-1.0758 1.0758,-1.0758 0.59416,0 1.0758,0.48166 1.0758,1.0758 z m 11.85,0.94603 -12.953,-1.1318 m 14.028,1.1318 c 0,0.59416 -0.48165,1.0758 -1.0758,1.0758 -0.59415,0 -1.0758,-0.48165 -1.0758,-1.0758 0,-0.59415 0.48166,-1.0758 1.0758,-1.0758 0.59416,0 1.0758,0.48166 1.0758,1.0758 z m 6.8779,11.349 -2.671,12.4 m 3.7469,-12.4 c 0,0.59415 -0.48165,1.0758 -1.0758,1.0758 -0.59415,0 -1.0758,-0.48166 -1.0758,-1.0758 0,-0.59416 0.48166,-1.0758 1.0758,-1.0758 0.59416,0 1.0758,0.48166 1.0758,1.0758 z m 7.0442,2.3996 -7.6606,-2.568 m 8.7364,2.568 c 0,0.59415 -0.48165,1.0758 -1.0758,1.0758 -0.59415,0 -1.0758,-0.48166 -1.0758,-1.0758 0,-0.59416 0.48166,-1.0758 1.0758,-1.0758 0.59416,0 1.0758,0.48165 1.0758,1.0758 z m -6.4906,-13.508 -10.382,-0.37599 m 11.458,0.37599 c 0,0.59415 -0.48165,1.0758 -1.0758,1.0758 -0.59415,0 -1.0758,-0.48166 -1.0758,-1.0758 0,-0.59416 0.48166,-1.0758 1.0758,-1.0758 0.59416,0 1.0758,0.48166 1.0758,1.0758 z m 11.721,12.845 -6.6779,0.4558 m 7.7537,-0.4558 c 0,0.59415 -0.48165,1.0758 -1.0758,1.0758 -0.59415,0 -1.0758,-0.48166 -1.0758,-1.0758 0,-0.59416 0.48166,-1.0758 1.0758,-1.0758 0.59416,0 1.0758,0.48165 1.0758,1.0758 z m -2.3696,-13.935 1.3357,13.534 m -0.25989,-13.534 c 0,0.59415 -0.48165,1.0758 -1.0758,1.0758 -0.59415,0 -1.0758,-0.48166 -1.0758,-1.0758 0,-0.59416 0.48166,-1.0758 1.0758,-1.0758 0.59416,0 1.0758,0.48165 1.0758,1.0758 z m 7.5572,2.3305 -7.2825,11.644 m 8.3583,-11.644 c 0,0.59416 -0.48165,1.0758 -1.0758,1.0758 -0.59415,0 -1.0758,-0.48165 -1.0758,-1.0758 0,-0.59415 0.48166,-1.0758 1.0758,-1.0758 0.59416,0 1.0758,0.48166 1.0758,1.0758 z m 2.9977,9.1567 -10.987,2.1944 m 12.063,-2.1944 c 0,0.59415 -0.48165,1.0758 -1.0758,1.0758 -0.59415,0 -1.0758,-0.48166 -1.0758,-1.0758 0,-0.59416 0.48166,-1.0758 1.0758,-1.0758 0.59416,0 1.0758,0.48165 1.0758,1.0758 z m -2.6104,11.306 -0.10083,10.964 m 1.1766,-10.964 c 0,0.59415 -0.48165,1.0758 -1.0758,1.0758 -0.59415,0 -1.0758,-0.48166 -1.0758,-1.0758 0,-0.59416 0.48166,-1.0758 1.0758,-1.0758 0.59416,0 1.0758,0.48166 1.0758,1.0758 z m -10.671,0.8499 9.0465,9.6787 m -7.9707,-9.6787 c 0,0.59416 -0.48165,1.0758 -1.0758,1.0758 -0.59415,0 -1.0758,-0.48166 -1.0758,-1.0758 0,-0.59415 0.48166,-1.0758 1.0758,-1.0758 0.59416,0 1.0758,0.48166 1.0758,1.0758 z m -9.4841,3.7528 -9.7774,-2.7193 m 10.853,2.7193 c 0,0.59416 -0.48165,1.0758 -1.0758,1.0758 -0.59415,0 -1.0758,-0.48166 -1.0758,-1.0758 0,-0.59415 0.48166,-1.0758 1.0758,-1.0758 0.59416,0 1.0758,0.48166 1.0758,1.0758 z m -4.267,9.9105 -11.667,-2.2658 m 12.743,2.2658 c 0,0.59415 -0.48165,1.0758 -1.0758,1.0758 -0.59415,0 -1.0758,-0.48166 -1.0758,-1.0758 0,-0.59416 0.48166,-1.0758 1.0758,-1.0758 0.59416,0 1.0758,0.48166 1.0758,1.0758 z m 7.8077,8.3122 -7.2825,4.3111 m 8.3583,-4.3111 c 0,0.59415 -0.48165,1.0758 -1.0758,1.0758 -0.59415,0 -1.0758,-0.48166 -1.0758,-1.0758 0,-0.59416 0.48166,-1.0758 1.0758,-1.0758 0.59416,0 1.0758,0.48165 1.0758,1.0758 z m 6.3757,6.7139 -14.615,-2.0391 m 15.691,2.0391 c 0,0.59416 -0.48165,1.0758 -1.0758,1.0758 -0.59415,0 -1.0758,-0.48165 -1.0758,-1.0758 0,-0.59415 0.48166,-1.0758 1.0758,-1.0758 0.59416,0 1.0758,0.48166 1.0758,1.0758 z m -4.2346,-13.321 -3.7296,6.2767 m 4.8054,-6.2767 c 0,0.59415 -0.48165,1.0758 -1.0758,1.0758 -0.59415,0 -1.0758,-0.48166 -1.0758,-1.0758 0,-0.59414 0.48166,-1.0758 1.0758,-1.0758 0.59416,0 1.0758,0.48166 1.0758,1.0758 z m 6.8039,-5.1708 -7.8118,4.9916 m 8.8876,-4.9916 c 0,0.59415 -0.48165,1.0758 -1.0758,1.0758 -0.59415,0 -1.0758,-0.48166 -1.0758,-1.0758 0,-0.59416 0.48166,-1.0758 1.0758,-1.0758 0.59416,0 1.0758,0.48166 1.0758,1.0758 z"
       style="font-variation-settings:normal;fill:#000000;stroke:#000000;stroke-width:0.26458;stroke-linecap:round;stroke-linejoin:round;stop-color:#000000"
       id="path1" />
  </g>
  <g
     id="r-4"
     transform="translate(0,1.1980003)">
    <path
       class="node"
       d="m 418.511,53.486 c 0,0.61447 -0.49812,1.1126 -1.1126,1.1126 -0.61448,0 -1.1126,-0.49812 -1.1126,-1.1126 0,-0.61447 0.49813,-1.1126 1.1126,-1.1126 0.61447,0 1.1126,0.49813 1.1126,1.1126 z m -12.557,22.545 c 0,0.61447 -0.49813,1.1126 -1.1126,1.1126 -0.61447,0 -1.1126,-0.49812 -1.1126,-1.1126 0,-0.61448 0.49813,-1.1126 1.1126,-1.1126 0.61447,0 1.1126,0.49813 1.1126,1.1126 z m 0,-12.914 c 0,0.61447 -0.49813,1.1126 -1.1126,1.1126 -0.61447,0 -1.1126,-0.49813 -1.1126,-1.1126 0,-0.61447 0.49813,-1.1126 1.1126,-1.1126 0.61447,0 1.1126,0.49812 1.1126,1.1126 z m 0,-19.264 c 0,0.61447 -0.49813,1.1126 -1.1126,1.1126 -0.61447,0 -1.1126,-0.49813 -1.1126,-1.1126 0,-0.61447 0.49813,-1.1126 1.1126,-1.1126 0.61447,0 1.1126,0.49812 1.1126,1.1126 z m 0,-12.914 c 0,0.61447 -0.49813,1.1126 -1.1126,1.1126 -0.61447,0 -1.1126,-0.49812 -1.1126,-1.1126 0,-0.61448 0.49813,-1.1126 1.1126,-1.1126 0.61447,0 1.1126,0.49813 1.1126,1.1126 z m -12.557,50.608 c 0,0.61447 -0.49813,1.1126 -1.1126,1.1126 -0.61447,0 -1.1126,-0.49813 -1.1126,-1.1126 -1e-5,-0.61447 0.49812,-1.1126 1.1126,-1.1126 0.61448,0 1.1126,0.49813 1.1126,1.1126 z m 0,-12.444 c 0,0.61447 -0.49813,1.1126 -1.1126,1.1126 -0.61447,0 -1.1126,-0.49813 -1.1126,-1.1126 0,-0.61447 0.49812,-1.1126 1.1126,-1.1126 0.61448,0 1.1126,0.49812 1.1126,1.1126 z m 0,-15.619 c -10e-6,0.61447 -0.49813,1.1126 -1.1126,1.1126 -0.61447,0 -1.1126,-0.49812 -1.1126,-1.1126 -1e-5,-0.61447 0.49812,-1.1126 1.1126,-1.1126 0.61448,0 1.1126,0.49813 1.1126,1.1126 z m 0,-15.619 c 0,0.61447 -0.49813,1.1126 -1.1126,1.1126 -0.61447,0 -1.1126,-0.49813 -1.1126,-1.1126 0,-0.61447 0.49812,-1.1126 1.1126,-1.1126 0.61448,0 1.1126,0.49812 1.1126,1.1126 z m 0,-12.444 c -10e-6,0.61447 -0.49813,1.1126 -1.1126,1.1126 -0.61447,0 -1.1126,-0.49812 -1.1126,-1.1126 -1e-5,-0.61447 0.49812,-1.1126 1.1126,-1.1126 0.61448,0 1.1126,0.49813 1.1126,1.1126 z M 380.84,81.546 c 1e-5,0.61447 -0.49812,1.1126 -1.1126,1.1126 -0.61447,0 -1.1126,-0.49813 -1.1126,-1.1126 0,-0.61447 0.49812,-1.1126 1.1126,-1.1126 0.61448,0 1.1126,0.49813 1.1126,1.1126 z m 0,-12.444 c 1e-5,0.61447 -0.49812,1.1126 -1.1126,1.1126 -0.61447,0 -1.1126,-0.49813 -1.1126,-1.1126 10e-6,-0.61447 0.49813,-1.1126 1.1126,-1.1126 0.61447,0 1.1126,0.49812 1.1126,1.1126 z m 0,-15.619 c 0,0.61447 -0.49813,1.1126 -1.1126,1.1126 -0.61446,0 -1.1126,-0.49812 -1.1126,-1.1126 0,-0.61447 0.49812,-1.1126 1.1126,-1.1126 0.61448,0 1.1126,0.49813 1.1126,1.1126 z m 0,-15.619 c 1e-5,0.61447 -0.49812,1.1126 -1.1126,1.1126 -0.61447,0 -1.1126,-0.49813 -1.1126,-1.1126 10e-6,-0.61447 0.49813,-1.1126 1.1126,-1.1126 0.61447,0 1.1126,0.49812 1.1126,1.1126 z m 0,-12.444 c 0,0.61447 -0.49813,1.1126 -1.1126,1.1126 -0.61446,0 -1.1126,-0.49812 -1.1126,-1.1126 0,-0.61447 0.49812,-1.1126 1.1126,-1.1126 0.61448,0 1.1126,0.49813 1.1126,1.1126 z m -12.557,56.125 c 0,0.61447 -0.49813,1.1126 -1.1126,1.1126 -0.61447,0 -1.1126,-0.49813 -1.1126,-1.1126 0,-0.61447 0.49812,-1.1126 1.1126,-1.1126 0.61448,0 1.1126,0.49813 1.1126,1.1126 z m 0,-12.444 c 0,0.61447 -0.49813,1.1126 -1.1126,1.1126 -0.61447,0 -1.1126,-0.49813 -1.1126,-1.1126 0,-0.61447 0.49812,-1.1126 1.1126,-1.1126 0.61448,0 1.1126,0.49812 1.1126,1.1126 z m 0,-15.619 c 0,0.61447 -0.49813,1.1126 -1.1126,1.1126 -0.61447,0 -1.1126,-0.49812 -1.1126,-1.1126 0,-0.61448 0.49812,-1.1126 1.1126,-1.1126 0.61448,0 1.1126,0.49813 1.1126,1.1126 z m 0,-15.619 c 0,0.61447 -0.49813,1.1126 -1.1126,1.1126 -0.61447,0 -1.1126,-0.49813 -1.1126,-1.1126 0,-0.61447 0.49812,-1.1126 1.1126,-1.1126 0.61448,0 1.1126,0.49812 1.1126,1.1126 z m 0,-12.444 c 0,0.61447 -0.49813,1.1126 -1.1126,1.1126 -0.61447,0 -1.1126,-0.49812 -1.1126,-1.1126 0,-0.61448 0.49812,-1.1126 1.1126,-1.1126 0.61448,0 1.1126,0.49813 1.1126,1.1126 z m -12.557,56.125 c 0,0.61447 -0.49813,1.1126 -1.1126,1.1126 -0.61447,0 -1.1126,-0.49813 -1.1126,-1.1126 -1e-5,-0.61447 0.49812,-1.1126 1.1126,-1.1126 0.61448,0 1.1126,0.49813 1.1126,1.1126 z m 0,-12.444 c 0,0.61447 -0.49813,1.1126 -1.1126,1.1126 -0.61447,0 -1.1126,-0.49813 -1.1126,-1.1126 0,-0.61447 0.49812,-1.1126 1.1126,-1.1126 0.61448,0 1.1126,0.49812 1.1126,1.1126 z m 0,-15.619 c -10e-6,0.61447 -0.49813,1.1126 -1.1126,1.1126 -0.61447,0 -1.1126,-0.49812 -1.1126,-1.1126 -1e-5,-0.61447 0.49812,-1.1126 1.1126,-1.1126 0.61448,0 1.1126,0.49813 1.1126,1.1126 z m 0,-15.619 c 0,0.61447 -0.49813,1.1126 -1.1126,1.1126 -0.61447,0 -1.1126,-0.49813 -1.1126,-1.1126 0,-0.61447 0.49812,-1.1126 1.1126,-1.1126 0.61448,0 1.1126,0.49812 1.1126,1.1126 z m 0,-12.444 c -10e-6,0.61447 -0.49813,1.1126 -1.1126,1.1126 -0.61447,0 -1.1126,-0.49812 -1.1126,-1.1126 -1e-5,-0.61447 0.49812,-1.1126 1.1126,-1.1126 0.61448,0 1.1126,0.49813 1.1126,1.1126 z m -12.557,56.125 c 1e-5,0.61447 -0.49812,1.1126 -1.1126,1.1126 -0.61448,0 -1.1126,-0.49813 -1.1126,-1.1126 0,-0.61447 0.49813,-1.1126 1.1126,-1.1126 0.61447,0 1.1126,0.49813 1.1126,1.1126 z m 0,-12.444 c 1e-5,0.61447 -0.49812,1.1126 -1.1126,1.1126 -0.61448,0 -1.1126,-0.49813 -1.1126,-1.1126 10e-6,-0.61447 0.49813,-1.1126 1.1126,-1.1126 0.61447,0 1.1126,0.49812 1.1126,1.1126 z m 0,-15.619 c 0,0.61447 -0.49812,1.1126 -1.1126,1.1126 -0.61448,0 -1.1126,-0.49812 -1.1126,-1.1126 0,-0.61447 0.49813,-1.1126 1.1126,-1.1126 0.61447,0 1.1126,0.49813 1.1126,1.1126 z m 0,-15.619 c 1e-5,0.61447 -0.49812,1.1126 -1.1126,1.1126 -0.61448,0 -1.1126,-0.49813 -1.1126,-1.1126 10e-6,-0.61447 0.49813,-1.1126 1.1126,-1.1126 0.61447,0 1.1126,0.49812 1.1126,1.1126 z m 0,-12.444 c 0,0.61447 -0.49812,1.1126 -1.1126,1.1126 -0.61448,0 -1.1126,-0.49812 -1.1126,-1.1126 0,-0.61447 0.49813,-1.1126 1.1126,-1.1126 0.61447,0 1.1126,0.49813 1.1126,1.1126 z m -12.557,49.904 c 0,0.61447 -0.49813,1.1126 -1.1126,1.1126 -0.61447,0 -1.1126,-0.49812 -1.1126,-1.1126 0,-0.61448 0.49813,-1.1126 1.1126,-1.1126 0.61447,0 1.1126,0.49813 1.1126,1.1126 z m 0,-12.444 c 0,0.61447 -0.49812,1.1126 -1.1126,1.1126 -0.61448,0 -1.1126,-0.49813 -1.1126,-1.1126 0,-0.61447 0.49813,-1.1126 1.1126,-1.1126 0.61446,0 1.1126,0.49812 1.1126,1.1126 z m 0,-18.794 c 0,0.61447 -0.49813,1.1126 -1.1126,1.1126 -0.61447,0 -1.1126,-0.49812 -1.1126,-1.1126 0,-0.61448 0.49813,-1.1126 1.1126,-1.1126 0.61447,0 1.1126,0.49813 1.1126,1.1126 z m 0,-12.444 c 0,0.61447 -0.49812,1.1126 -1.1126,1.1126 -0.61448,0 -1.1126,-0.49813 -1.1126,-1.1126 0,-0.61447 0.49813,-1.1126 1.1126,-1.1126 0.61446,0 1.1126,0.49812 1.1126,1.1126 z M 318.055,53.48 c -1e-5,0.61447 -0.49813,1.1126 -1.1126,1.1126 -0.61447,0 -1.1126,-0.49812 -1.1126,-1.1126 -10e-6,-0.61447 0.49812,-1.1126 1.1126,-1.1126 0.61447,0 1.1126,0.49813 1.1126,1.1126 z m 11.444,21.841 12.557,6.2219 M 329.499,75.321 342.056,69.0991 M 329.499,75.321 342.056,53.48 m -12.557,21.841 12.557,-37.46 m -12.557,37.46 12.557,-49.904 M 316.943,53.48 329.5,75.321 m 75.34,0.70454 12.557,-22.545 m -25.113,28.063 12.557,-5.5174 m -12.557,-6.9265 12.557,6.9265 m -12.557,-22.545 12.557,22.545 m -12.557,-38.164 12.557,38.164 m -12.557,-50.608 12.557,50.608 m -12.557,5.5174 12.557,-18.431 m -12.557,18.431 12.557,-37.694 m -12.557,37.694 12.557,-50.608 m -25.113,50.608 h 12.557 m -12.557,-12.444 12.557,12.444 m -12.557,-28.063 12.557,28.063 m -12.557,-43.682 12.557,43.682 m -12.557,-56.125 12.557,56.125 m 0,-12.444 12.557,-5.9871 m -12.557,5.9871 12.557,-25.251 m -12.557,25.251 12.557,-38.164 m -25.113,50.608 12.557,-12.444 m -12.557,0 h 12.557 m -12.557,-15.619 12.557,15.619 m -12.557,-31.238 12.557,31.238 m -12.557,-43.682 12.557,43.682 m 12.557,-5.9871 12.557,-9.6318 m -25.113,0 12.557,9.6318 m -12.557,-25.251 12.557,25.251 m -12.557,-37.694 12.557,37.694 m 0,-19.264 12.557,9.6318 m -25.113,0 12.557,-9.6318 m -12.557,-5.9871 12.557,5.9871 m -12.557,-18.431 12.557,18.431 m 0,-12.914 12.557,22.545 m -25.113,0 12.557,-22.545 m -12.557,6.9265 12.557,-6.9265 m -12.557,-5.5174 12.557,5.5174 m -25.113,50.608 12.557,-28.063 m -12.557,15.619 12.557,-15.619 m -12.557,0 h 12.557 m -12.557,-15.619 12.557,15.619 m -12.557,-28.063 12.557,28.063 m -12.557,28.063 12.557,-43.682 m -12.557,31.238 12.557,-31.238 m -12.557,15.619 12.557,-15.619 m -12.557,0 h 12.557 m -12.557,-12.444 12.557,12.444 m -12.557,43.682 12.557,-56.125 m -12.557,43.682 12.557,-43.682 m -12.557,28.063 12.557,-28.063 m -12.557,12.444 12.557,-12.444 m -12.557,0 h 12.557 m -25.113,56.125 h 12.557 m -12.557,-12.444 12.557,12.444 m -12.557,-28.063 12.557,28.063 m -12.557,-43.682 12.557,43.682 m -12.557,-56.125 12.557,56.125 m -12.557,0 12.557,-12.444 m -12.557,0 h 12.557 m -12.557,-15.619 12.557,15.619 m -12.557,-31.238 12.557,31.238 m -12.557,-43.682 12.557,43.682 m -12.557,12.444 12.557,-28.063 m -12.557,15.619 12.557,-15.619 m -12.557,0 h 12.557 m -12.557,-15.619 12.557,15.619 m -12.557,-28.063 12.557,28.063 m -12.557,28.063 12.557,-43.682 m -12.557,31.238 12.557,-31.238 m -12.557,15.619 12.557,-15.619 m -12.557,0 h 12.557 m -12.557,-12.444 12.557,12.444 m -12.557,43.682 12.557,-56.125 m -12.557,43.682 12.557,-43.682 m -12.557,28.063 12.557,-28.063 m -12.557,12.444 12.557,-12.444 m -12.557,0 h 12.557 m -25.113,56.125 h 12.557 m -12.557,-12.444 12.557,12.444 m -12.557,-28.063 12.557,28.063 m -12.557,-43.682 12.557,43.682 m -12.557,-56.125 12.557,56.125 m -12.557,0 12.557,-12.444 m -12.557,0 h 12.557 m -12.557,-15.619 12.557,15.619 m -12.557,-31.238 12.557,31.238 m -12.557,-43.682 12.557,43.682 m -12.557,12.444 12.557,-28.063 m -12.557,15.619 12.557,-15.619 m -12.557,0 h 12.557 m -12.557,-15.619 12.557,15.619 m -12.557,-28.063 12.557,28.063 m -12.557,28.063 12.557,-43.682 m -12.557,31.238 12.557,-31.238 m -12.557,15.619 12.557,-15.619 m -12.557,0 h 12.557 m -12.557,-12.444 12.557,12.444 m -12.557,43.682 12.557,-56.125 m -12.557,43.682 12.557,-43.682 m -12.557,28.063 12.557,-28.063 m -12.557,12.444 12.557,-12.444 m -12.557,0 h 12.557 m -25.113,56.125 h 12.557 m -12.557,-12.444 12.557,12.444 m -12.557,-28.063 12.557,28.063 m -12.557,-43.682 12.557,43.682 m -12.557,-56.125 12.557,56.125 m -12.557,0 12.557,-12.444 m -12.557,0 h 12.557 m -12.557,-15.619 12.557,15.619 m -12.557,-31.238 12.557,31.238 m -12.557,-43.682 12.557,43.682 m -12.557,12.444 12.557,-28.063 m -12.557,15.619 12.557,-15.619 m -12.557,0 h 12.557 m -12.557,-15.619 12.557,15.619 m -12.557,-28.063 12.557,28.063 m -12.557,28.063 12.557,-43.682 m -12.557,31.238 12.557,-31.238 m -12.557,15.619 12.557,-15.619 m -12.557,0 h 12.557 m -12.557,-12.444 12.557,12.444 m -12.557,43.682 12.557,-56.125 m -12.557,43.682 12.557,-43.682 m -12.557,28.063 12.557,-28.063 m -12.557,12.444 12.557,-12.444 m -12.557,0 h 12.557 m -25.113,37.46 12.557,18.666 m -12.557,-18.666 12.557,6.2219 m -12.557,-6.2219 12.557,-9.3969 m -12.557,9.3969 12.557,-25.016 m -12.557,25.016 12.557,-37.46 m -12.557,18.666 12.557,37.46 m -12.557,-37.46 12.557,25.016 m -12.557,-25.016 12.557,9.3969 m -12.557,-9.3969 12.557,-6.2219 m -12.557,6.2219 12.557,-18.666 m -12.557,6.2219 12.557,49.904 m -12.557,-49.904 12.557,37.46 m -12.557,-37.46 12.557,21.841 m -12.557,-21.841 12.557,6.2219 m -12.557,-6.2219 12.557,-6.2219 m -25.113,28.063 12.557,9.3969 m -12.557,-9.3969 12.557,-9.3969 m -12.557,9.3969 12.557,-21.841"
       style="fill:#000000;stroke:#333333;stroke-width:0.23485"
       id="path11" />
  </g>
</svg>
