<svg width="189.4mm" height="53.718mm" version="1.1" viewBox="0 0 189.4 53.718" xmlns="http://www.w3.org/2000/svg">
 <rect x="0" y="0" width="100%" height="100%" fill="white"></rect>
 <g transform="translate(-8.5671 -118.55)">
  <path d="m39.352 153.48c1.4899 0.47327 3.1963 0.88499 5.2917 0.78313 1.6785-0.0816 3.1303-0.65874 3.9318-2.1073 0.3314-0.59897 0.46248-1.1989 0.5163-1.8509 0.04809-0.58245 0.0198-1.0474-0.1866-1.5873-1.2398-3.2433-6.5681-3.1247-7.9671-6.3512-0.27812-0.64144-0.37488-1.1951-0.37462-1.8511 2.62e-4 -0.6801 0.07817-1.2073 0.41954-1.8511 0.73163-1.3797 1.9517-1.8529 3.3961-2.0411 1.5544-0.20259 3.0688 0.17806 4.4979 0.7172m19.315 16.404c-1.4372 0.27872-3.3855 0.61832-4.7625 0.45363-1.1654-0.13938-2.0541-0.17098-3.174-0.81539-1.0702-0.61583-1.9955-1.7184-2.5309-2.8132-0.39446-0.80659-0.72608-1.9896-0.85438-2.9104-0.29134-2.0908-0.08227-4.6664 0.64819-6.6146 0.63536-1.6946 2.2033-3.32 3.7944-3.9067 0.89921-0.33154 1.5646-0.53307 2.6458-0.58041 1.7038-0.0746 2.7865 0.40017 4.2333 0.51834m88.9 16.404c1.5142 0.55605 2.9505 0.84408 5.0271 0.78987 2.3051-0.0602 4.3666-1.1898 4.679-3.7003 0.0854-0.68659 0.0473-1.2096-0.18966-1.8519-0.3567-0.96697-1.2128-1.7006-2.1081-2.2577-2.0256-1.2605-5.0161-1.9506-5.9364-4.3573-0.21828-0.57083-0.32175-1.0123-0.32175-1.5873 0-0.66412 0.13672-1.2146 0.42934-1.848 0.69516-1.5047 2.1521-1.9264 3.7121-2.0754 1.49-0.14238 2.8763 0.23645 4.2333 0.74843m-59.531 16.669c-1.6614 0-4.281 0.0104-5.8208-2.1e-4 -0.99004-7e-3 -1.7826 0.1728-2.2216-0.83274-0.25753-0.58984-0.15859-1.2965-0.15965-1.8129-0.0017-0.82277-5.3e-5 -2.5827 0-3.4396 7.2e-5 -1.1191 0.04002-1.7691 0.04002-2.9104 0-1.1413-0.03994-1.7913-0.04002-2.9104-4.5e-5 -0.7076-0.0014-1.9665 0-2.6458 0.0011-0.51638-0.09788-1.223 0.15965-1.8129 0.43903-1.0055 1.2316-0.82593 2.2216-0.83275 1.5399-0.0106 4.1594-2e-4 5.8208-2e-4m43.921 17.198c-1.613 0-4.0508 3e-3 -5.5562 0-1.0792-2e-3 -2.0206 0.23346-2.4862-0.83295-0.30284-0.69363-0.15938-1.4816-0.15964-2.0775-3.7e-4 -0.80579-2.6e-4 -2.6362 0-3.4396 3.2e-4 -1.0068 0.04-1.5503 0.04-2.6458 0-1.1796-0.04-2.0503-0.04-3.175 0-0.76798-5e-3 -1.9524 2e-4 -2.6458 3e-3 -0.43004-0.0766-1.0076 0.15944-1.5483 0.43904-1.0055 1.2315-0.82593 2.2216-0.83275 1.5398-0.0106 4.1594-2e-4 5.8208-2e-4m-74.612 0.52917v4.7625l0.03675 2.6458-0.03675 2.9104v5.8208m12.7-16.14v4.4979l-0.04002 3.175 0.04002 2.9104v5.5562m25.665 0.26458v-10.848c0-0.91341-4e-5 -1.8523 0-2.6458 8e-5 -1.1843-0.3943-2.2727 0.61328-2.7497 1.5932-0.75431 2.867 1.1314 3.2632 2.2206 0.86179 2.3694 1.6986 5.4651 2.4668 7.9375 0.29556 0.95126 0.66707 2.291 0.9781 3.1748 0.35261 1.002 0.55336 1.9274 1.6792 1.9274 1.019 0 1.6081-1.0403 1.9003-1.6636 0.24961-0.5325 0.52327-1.457 0.74067-2.1156 0.66408-2.012 1.2435-3.9944 1.9405-6.0854 0.34618-1.0385 1.0406-3.307 1.3823-3.9647 0.33302-0.64093 1.1773-1.905 2.7236-1.5034 1.1981 0.3112 0.83295 1.9169 0.83295 3.0868v12.965m-56.621-8.4667h2.3812 7.1438 2.6458m10.319 0h7.4083m36.512 0h7.4083" fill="none" stroke="#050505"/>
 </g>
</svg>
